<svg width="18" height="18" viewBox="0 0 18 18" fill="none" xmlns="http://www.w3.org/2000/svg">
<path fill-rule="evenodd" clip-rule="evenodd" d="M10.4294 1.85801C10.4294 1.06904 9.78985 0.429443 9.00087 0.429443C8.21189 0.429443 7.5723 1.06903 7.5723 1.85801V7.5723H1.85801C1.06904 7.5723 0.429443 8.21189 0.429443 9.00087C0.429443 9.78985 1.06903 10.4294 1.85801 10.4294H7.5723V16.1437C7.5723 16.9327 8.21189 17.5723 9.00087 17.5723C9.78985 17.5723 10.4294 16.9327 10.4294 16.1437V10.4294H16.1437C16.9327 10.4294 17.5723 9.78985 17.5723 9.00087C17.5723 8.21189 16.9327 7.5723 16.1437 7.5723H10.4294V1.85801Z" fill="white"/>
</svg>
