<svg width="30" height="30" viewBox="0 0 30 30" fill="none" xmlns="http://www.w3.org/2000/svg">
<circle cx="15" cy="15" r="15" fill="#FCBE01" fill-opacity="0.2"/>
<path d="M8 11.5562C8 12.8265 9.33417 14.0006 11.5 14.6358C13.6658 15.2704 16.3342 15.2704 18.5 14.6358C20.6658 14.0006 22 12.8265 22 11.5562C22 9.59231 18.8659 8 15 8C11.1341 8 8 9.59231 8 11.5562ZM15 16.1819C12.1408 16.1819 9.68201 15.3108 8.5953 14.0629C8.21244 14.5025 8 14.9888 8 15.5C8 17.4638 11.1341 19.0562 15 19.0562C18.8659 19.0562 22 17.4638 22 15.5C22 14.9888 21.7876 14.5019 21.4047 14.0635C20.318 15.3113 17.8592 16.1819 15 16.1819ZM15 20.2238C12.1035 20.2238 9.61781 19.3302 8.55328 18.0558C8.19727 18.4827 8 18.9517 8 19.4438C8 21.4077 11.1341 23 15 23C18.8659 23 22 21.4077 22 19.4438C22 18.9517 21.8033 18.4821 21.4467 18.0558C20.3822 19.3302 17.8965 20.2238 15 20.2238Z" fill="#FF9900"/>
</svg>
