<svg width="24" height="24" viewBox="0 0 24 24" fill="none" xmlns="http://www.w3.org/2000/svg">
<path d="M4.32048 20.8976C4.0251 20.8976 3.72971 20.8422 3.43433 20.713C2.56663 20.3622 2.03125 19.5499 2.03125 18.6268V12.1653C2.03125 7.18068 6.09279 3.11914 11.0774 3.11914H12.9236C17.9082 3.11914 21.9697 7.18068 21.9697 12.1653C21.9697 16.1345 18.7389 19.3653 14.7697 19.3653H6.77586L5.90817 20.233C5.4651 20.6576 4.89279 20.8976 4.32048 20.8976ZM11.0774 4.5776C6.9051 4.5776 3.50817 7.97452 3.50817 12.1468V18.6084C3.50817 19.1068 3.8774 19.2914 3.98817 19.3468C4.09894 19.4022 4.5051 19.5314 4.85586 19.1807L5.94509 18.0914C6.09279 17.9438 6.2774 17.8699 6.46202 17.8699H14.7697C17.9266 17.8699 20.4928 15.3038 20.4928 12.1468C20.4928 7.97452 17.0959 4.5776 12.9236 4.5776H11.0774Z" fill="#1F263D" fill-opacity="0.6"/>
<path d="M6.14844 11.9998C6.14844 12.1817 6.18425 12.3617 6.25383 12.5297C6.32342 12.6977 6.42541 12.8503 6.55398 12.9789C6.68255 13.1075 6.83519 13.2095 7.00318 13.2791C7.17117 13.3486 7.35122 13.3845 7.53305 13.3845C7.71488 13.3845 7.89493 13.3486 8.06292 13.2791C8.23091 13.2095 8.38355 13.1075 8.51212 12.9789C8.64069 12.8503 8.74269 12.6977 8.81227 12.5297C8.88185 12.3617 8.91767 12.1817 8.91767 11.9998C8.91767 11.818 8.88185 11.638 8.81227 11.47C8.74269 11.302 8.64069 11.1494 8.51212 11.0208C8.38355 10.8922 8.23091 10.7902 8.06292 10.7206C7.89493 10.651 7.71488 10.6152 7.53305 10.6152C7.35122 10.6152 7.17117 10.651 7.00318 10.7206C6.83519 10.7902 6.68255 10.8922 6.55398 11.0208C6.42541 11.1494 6.32342 11.302 6.25383 11.47C6.18425 11.638 6.14844 11.818 6.14844 11.9998Z" fill="#1F263D" fill-opacity="0.3"/>
<path d="M10.7637 11.9998C10.7637 12.1817 10.7995 12.3617 10.8691 12.5297C10.9387 12.6977 11.0406 12.8503 11.1692 12.9789C11.2978 13.1075 11.4504 13.2095 11.6184 13.2791C11.7864 13.3486 11.9665 13.3845 12.1483 13.3845C12.3301 13.3845 12.5102 13.3486 12.6782 13.2791C12.8461 13.2095 12.9988 13.1075 13.1274 12.9789C13.2559 12.8503 13.3579 12.6977 13.4275 12.5297C13.4971 12.3617 13.5329 12.1817 13.5329 11.9998C13.5329 11.818 13.4971 11.638 13.4275 11.47C13.3579 11.302 13.2559 11.1494 13.1274 11.0208C12.9988 10.8922 12.8461 10.7902 12.6782 10.7206C12.5102 10.651 12.3301 10.6152 12.1483 10.6152C11.9665 10.6152 11.7864 10.651 11.6184 10.7206C11.4504 10.7902 11.2978 10.8922 11.1692 11.0208C11.0406 11.1494 10.9387 11.302 10.8691 11.47C10.7995 11.638 10.7637 11.818 10.7637 11.9998Z" fill="#1F263D" fill-opacity="0.3"/>
<path d="M15.3789 11.9998C15.3789 12.3671 15.5248 12.7193 15.7845 12.9789C16.0441 13.2386 16.3963 13.3845 16.7635 13.3845C17.1308 13.3845 17.4829 13.2386 17.7426 12.9789C18.0023 12.7193 18.1481 12.3671 18.1481 11.9998C18.1481 11.6326 18.0023 11.2804 17.7426 11.0208C17.4829 10.7611 17.1308 10.6152 16.7635 10.6152C16.3963 10.6152 16.0441 10.7611 15.7845 11.0208C15.5248 11.2804 15.3789 11.6326 15.3789 11.9998Z" fill="#1F263D" fill-opacity="0.3"/>
</svg>
