<svg width="500" height="500" viewBox="0 0 500 500" fill="none" xmlns="http://www.w3.org/2000/svg">
<mask id="mask0_2478_3398" style="mask-type:alpha" maskUnits="userSpaceOnUse" x="0" y="0" width="500" height="500">
<rect width="500" height="500" fill="#E4F7FE"/>
</mask>
<g mask="url(#mask0_2478_3398)">
<path d="M199 424.394C208.6 404.794 208.333 354.56 207 331.894L349.5 345.894C352.5 348.894 357.4 364.594 353 403.394C348.6 442.194 363.167 485.56 371 502.394L297 522.394L130 506.894C149 487.56 189.4 443.994 199 424.394Z" fill="#E4CDB5"/>
<path d="M385.524 74.3973C404.324 103.597 386.858 146.23 376.024 157.397L392.024 276.897C394.524 304.563 399.624 350.494 392.024 372.894C382.524 400.894 334.5 427.394 291.5 423.894C257.1 421.094 228.358 397.063 217.024 383.897L169.5 316.397L121.524 226.897C113.858 185.064 88.5229 122.897 121.524 94.8973C138.019 80.9012 161.524 73.0635 174.024 79.3968C174.691 62.8969 194.6 30.8936 255 26.8936C330.5 21.8936 362.024 37.8973 385.524 74.3973Z" fill="#544E5B"/>
<path d="M123.374 199.798C137.005 193.119 152.267 212.052 158.195 222.353C157.868 234.909 163.841 270.53 166.868 286.771C167.091 288.423 166.022 291.728 159.969 291.736C152.403 291.746 130.38 278.062 117.267 255.611C104.154 233.16 106.335 208.146 123.374 199.798Z" fill="#F4DBC2"/>
<path d="M437 93.3936C420.6 107.394 396.167 104.894 386 101.894C370.667 123.06 347.1 162.494 375.5 150.894C411 136.394 416 119.394 437 93.3936Z" fill="#544E5B"/>
<path d="M302.943 152.894C336.143 152.894 366.11 136.894 376.943 128.894C397.943 162.894 372.971 182.572 383.999 191.394C401.5 205.394 393.296 285.894 381.443 301.394C374.943 309.894 363.943 307.394 351.443 304.894C338.943 302.394 309.499 295.894 280.499 304.894C261.482 310.796 246.943 314.394 228.943 301.394C210.943 288.394 199.251 261.649 196.943 251.394C192.443 231.394 200.5 225.394 192.443 191.394C189.643 179.575 193.943 144.894 196.943 128.894C218.443 136.894 269.743 152.894 302.943 152.894Z" fill="#F4DBC2"/>
<path d="M275.5 468.394C225.982 468.394 207.333 440.394 200 422.394L35 444.394L-18 468.394L6.5 552.894H525L541 468.394L484.5 450.894L353 432.394C346.5 450.394 323.5 468.394 275.5 468.394Z" fill="#323841"/>
</g>
</svg>
