<svg width="500" height="500" viewBox="0 0 500 500" fill="none" xmlns="http://www.w3.org/2000/svg">
<mask id="mask0_2478_3386" style="mask-type:alpha" maskUnits="userSpaceOnUse" x="0" y="0" width="500" height="500">
<rect width="500" height="500" fill="#FFE5EE"/>
</mask>
<g mask="url(#mask0_2478_3386)">
<path d="M301.835 26.7983C331.019 33.2836 342.368 69.5836 344.395 86.9229C357.681 86.0222 388.306 90.3008 404.52 114.621C424.786 145.021 403.169 188.932 411.951 205.146C420.733 221.359 441 232.168 436.947 286.888C433.272 336.499 428.84 365.928 480.858 388.897C532.876 411.866 547.738 446.995 556.52 481.449C565.302 515.902 518.689 515.902 563.951 549.68C600.161 576.702 591.649 605.076 582.867 615.885L-25.135 620.614C-31.4403 613.858 -45.1317 595.348 -49.4553 575.351C-54.8598 550.356 -18.3797 537.52 -13.6507 515.902C-8.92184 494.284 -33.9173 483.475 -34.5929 446.995C-35.2684 410.515 24.9477 405.254 32.5 368.5C37.9452 342 14.9733 325.767 17 305.5C19.0267 285.233 33.6384 277.43 44.4473 265.946C55.2562 254.461 47.7 244.626 53.2295 232.168C61.0216 214.613 59.9851 216.63 82.9541 192.986C105.923 169.341 97.8163 158.532 97.8163 139.617C97.8163 120.701 98.4919 116.648 118.083 84.2208C137.674 51.794 220.092 51.1184 234.279 45.7139C248.466 40.3094 265.355 18.6916 301.835 26.7983Z" fill="#593B4A"/>
<path d="M255.222 397.68C247.115 379.845 240.134 369.982 237.657 367.28L274.813 312.56L340.342 275.404V290.266C342.143 297.472 344.666 315.532 340.342 330.124C334.938 348.364 316.697 370.658 312.644 386.871C309.401 399.842 308.591 403.084 309.266 409.164L304.537 411.867C291.477 414.569 263.328 415.515 255.222 397.68Z" fill="#E4CDB5"/>
<path d="M162.67 255.812C162.67 243.922 155.915 220.683 152.537 210.55L162.67 136.914L261.302 68.0071L323.453 127.456L393.711 187.581L407.222 244.328L380.876 315.261L346.422 290.266C332.235 330.123 278.191 361.199 261.302 366.604C244.584 371.953 239.119 371.346 233.113 370.677L232.928 370.657C226.848 369.981 216.715 365.252 206.582 351.741C196.448 338.23 166.724 305.128 162.67 290.266C158.617 275.403 162.67 270.674 162.67 255.812Z" fill="#F4DBC2"/>
<path d="M205.23 127.457C213.536 116.554 227.495 118.91 234.171 121.707C233.819 122.672 233.603 123.697 233.603 124.755C233.603 130.159 232.928 138.266 242.386 145.697C249.952 151.642 267.606 143.22 275.488 138.266C275.713 141.644 277.92 147.859 284.946 145.697C288.999 154.479 289.675 165.288 322.777 171.368C330.208 186.231 330.884 190.959 329.533 200.417C328.181 209.875 316.021 227.44 317.372 242.977C318.724 258.515 328.857 265.946 333.586 265.946C329.307 264.145 321.156 257.029 322.777 242.977C324.398 228.926 328.857 221.81 330.884 220.008C329.533 226.989 329.397 241.626 339.666 244.329C349.934 247.031 353.402 234.195 353.853 227.44C357.23 221.134 367.229 210.821 380.199 220.008C396.413 231.493 378.848 291.618 345.746 291.618L362.635 337.556L403.844 316.613L417.355 248.382L366.688 99.7592L249.141 54.4968L112.003 94.3547V180.151L136.999 233.52H157.265C174.83 215.28 169.425 212.577 168.75 190.959C168.074 169.342 178.883 167.991 186.314 161.911C187.935 169.477 191.944 171.368 193.745 171.368C193.745 171.368 194.421 141.644 205.23 127.457Z" fill="#593B4A"/>
<path d="M240.359 398.305C263.598 383.713 296.43 392.225 309.942 398.305C308.365 410.915 310.482 433.974 331.559 425.327C347.097 457.078 372.768 449.647 384.253 453.025C395.737 456.403 409.924 468.613 401.817 492.933C396.396 509.196 361.284 522.657 369.391 544.951C377.497 567.244 390.333 575.976 404.52 590.163C415.869 601.512 402.943 624.166 395.062 634.074H153.888C166.948 585.434 194.151 483.695 198.475 465.86C203.879 443.567 211.31 416.545 240.359 398.305Z" fill="#F4DBC2"/>
<path d="M215.512 304.835C220.376 299.971 226.096 300.556 228.347 301.457C234.427 295.376 257.171 296.954 264.827 298.08C258.072 311.59 245.506 320.778 233.076 322.4C221.049 323.968 213.534 314.28 211.019 308.754C210.53 308.976 210.575 308.628 210.783 308.213C210.856 308.388 210.935 308.569 211.019 308.754C211.59 308.495 212.89 307.456 215.512 304.835Z" fill="#E23737"/>
</g>
</svg>
