<svg width="24" height="24" viewBox="0 0 24 24" fill="none" xmlns="http://www.w3.org/2000/svg">
<mask id="mask0_632_7431" style="mask-type:alpha" maskUnits="userSpaceOnUse" x="0" y="0" width="24" height="24">
<rect width="24" height="24" fill="#C4C4C4"/>
</mask>
<g mask="url(#mask0_632_7431)">
<path d="M9.12091 15.3127L9.21129 15.2699L9.12091 15.3127L11.4861 20.3058C11.7541 20.8716 12.1853 21.3443 12.7241 21.6631C13.263 21.9818 13.8849 22.132 14.5099 22.0943C15.1348 22.0566 15.7342 21.8328 16.2308 21.4516C16.7275 21.0704 17.0987 20.5493 17.2967 19.9553L21.9389 6.02924C22.1232 5.47649 22.15 4.88333 22.0161 4.31624C21.8823 3.74914 21.5931 3.23054 21.1811 2.81856C20.7691 2.40658 20.2504 2.11751 19.6833 1.98376C19.1162 1.85001 18.5231 1.87686 17.9704 2.06129C17.9704 2.0613 17.9704 2.0613 17.9704 2.0613L4.04465 6.70289L4.04464 6.7029C3.4507 6.90092 2.9296 7.27215 2.54841 7.76882C2.16722 8.26549 1.94338 8.86487 1.90569 9.48983C1.868 10.1148 2.01819 10.7367 2.33693 11.2756C2.65566 11.8145 3.12837 12.2457 3.6942 12.5136L8.68711 14.8789L8.72992 14.7885L8.68711 14.8789C8.87747 14.9691 9.03074 15.1224 9.12091 15.3127ZM4.74918 8.81307L4.74928 8.81303L18.6744 4.17207L18.6428 4.0772L18.6744 4.17207C18.8922 4.09947 19.1294 4.11164 19.3387 4.20617C19.5473 4.30039 19.7128 4.46952 19.8025 4.68001L19.8286 4.75049C19.8906 4.93729 19.8904 5.13912 19.8281 5.32584L19.923 5.35747L19.8281 5.32584L15.1867 19.2513L15.2815 19.2829L15.1866 19.2513C15.1488 19.3649 15.0889 19.47 15.0104 19.5605C14.9319 19.651 14.8364 19.7251 14.7293 19.7787C14.6221 19.8323 14.5055 19.8642 14.386 19.8727C14.2673 19.8811 14.1482 19.8663 14.0352 19.8289L13.9447 19.7937C13.7488 19.7046 13.5894 19.5492 13.497 19.3535L13.497 19.3534L11.201 14.5066L17.3142 8.39391L17.3142 8.39398L17.3171 8.39089L17.3683 8.3352L17.3683 8.33521L17.3698 8.33353C17.5611 8.1159 17.6599 7.83221 17.6452 7.54284C17.6304 7.25347 17.5034 6.98127 17.291 6.78418C17.0786 6.5871 16.7977 6.48069 16.508 6.48762C16.2185 6.49454 15.9432 6.6141 15.7405 6.82088C15.7403 6.821 15.7402 6.82113 15.7401 6.82125L9.6757 12.8858C9.66378 12.8799 9.65182 12.8742 9.63991 12.8686C9.6399 12.8686 9.63988 12.8686 9.63986 12.8686L4.64718 10.5034L4.64707 10.5033C4.48232 10.4255 4.34465 10.3001 4.25181 10.1433C4.15898 9.98654 4.11523 9.80553 4.12622 9.62365C4.13721 9.44176 4.20242 9.26734 4.31346 9.12287C4.42449 8.97839 4.57625 8.87049 4.74918 8.81307Z" fill="#FF54A8" stroke="#FF54A8" stroke-width="0.2"/>
<path d="M9.8489 14.3474C9.38011 13.879 9.37969 13.1193 9.84795 12.6505L15.7536 6.73723C16.2219 6.26825 16.9819 6.26782 17.4508 6.73629C17.9196 7.20464 17.92 7.96432 17.4517 8.4332L11.5461 14.3464C11.0777 14.8154 10.3178 14.8158 9.8489 14.3474Z" fill="#FF9580"/>
</g>
</svg>
