<svg width="16" height="16" viewBox="0 0 16 16" fill="none" xmlns="http://www.w3.org/2000/svg">
<path d="M9.25271 3.19902C7.26476 3.19902 5.64625 4.88207 5.64625 6.95304C5.64625 9.02095 7.26329 10.7055 9.25271 10.7055C11.2421 10.7055 12.8606 9.02248 12.8606 6.95304C12.8621 4.88207 11.2421 3.19902 9.25271 3.19902ZM9.25271 12.3061C7.98458 12.3061 6.82494 11.825 5.92626 11.0308L5.18591 11.8021L6.40126 13.0682L5.31346 14.1999L4.09811 12.9338L2.68778 14.4L1.59998 13.2683L3.00884 11.8021L1.72166 10.4627L2.80946 9.33099L4.09664 10.6704L4.91469 9.81971C4.40598 8.98888 4.1069 8.00685 4.1069 6.95304C4.1069 4.00083 6.41445 1.59998 9.25271 1.59998C12.091 1.59998 14.4 4.00083 14.4 6.95304C14.4 9.90371 12.091 12.3061 9.25271 12.3061Z" fill="#1F263D" fill-opacity="0.4"/>
</svg>
