<svg width="10" height="10" viewBox="0 0 10 10" fill="none" xmlns="http://www.w3.org/2000/svg">
<path d="M5.78296 1.9994C4.54049 1.9994 3.52892 3.05131 3.52892 4.34566C3.52892 5.63811 4.53957 6.69097 5.78296 6.69097C7.02634 6.69097 8.03791 5.63906 8.03791 4.34566C8.03883 3.05131 7.02634 1.9994 5.78296 1.9994ZM5.78296 7.69133C4.99038 7.69133 4.26561 7.39065 3.70393 6.89428L3.24121 7.37633L4.0008 8.16764L3.32093 8.87496L2.56133 8.08364L1.67988 9L1 8.29269L1.88054 7.37633L1.07605 6.5392L1.75593 5.83188L2.56042 6.66901L3.0717 6.13733C2.75375 5.61806 2.56683 5.0043 2.56683 4.34566C2.56683 2.50054 4.00905 1 5.78296 1C7.55687 1 9 2.50054 9 4.34566C9 6.18983 7.55687 7.69133 5.78296 7.69133Z" fill="#FF54A8" stroke="#FF54A8" stroke-width="0.4"/>
</svg>
