<svg width="10" height="10" viewBox="0 0 10 10" fill="none" xmlns="http://www.w3.org/2000/svg">
<path d="M4.31913 3.49685C3.07652 3.49685 2.06667 4.49467 2.06667 5.72248C2.06667 6.94938 3.07743 7.9472 4.31913 7.9472C5.56082 7.9472 6.57251 6.94846 6.57251 5.72248C6.57159 4.49467 5.56082 3.49685 4.31913 3.49685ZM9 4.06128H7.93333V2.86645L6.99679 3.79189C7.39817 4.33341 7.63826 4.99954 7.63826 5.72157C7.63826 7.52938 6.15006 9 4.31913 9C2.48912 9 1 7.52938 1 5.72157C1 3.91376 2.48912 2.44222 4.31913 2.44222C5.03482 2.44222 5.69553 2.66945 6.23803 3.05062L7.24696 2.05372H5.88889V1H9V4.06128Z" fill="#5465FF" stroke="#5465FF" stroke-width="0.4"/>
</svg>
