<svg width="335" height="109" viewBox="0 0 335 109" fill="none" xmlns="http://www.w3.org/2000/svg">
<mask id="mask0_632_7681" style="mask-type:alpha" maskUnits="userSpaceOnUse" x="0" y="0" width="335" height="109">
<rect width="335" height="109" fill="#FFFDE7"/>
</mask>
<g mask="url(#mask0_632_7681)">
<g opacity="0.2">
<path d="M269 68.9662C269 75.7415 275.861 82.0031 287 85.3908C298.139 88.7754 311.861 88.7754 323 85.3908C334.139 82.0031 341 75.7415 341 68.9662C341 58.4923 324.882 50 305 50C285.118 50 269 58.4923 269 68.9662ZM305 93.6369C290.296 93.6369 277.65 88.9908 272.062 82.3354C270.093 84.68 269 87.2738 269 90C269 100.474 285.118 108.966 305 108.966C324.882 108.966 341 100.474 341 90C341 87.2738 339.907 84.6769 337.938 82.3385C332.35 88.9938 319.704 93.6369 305 93.6369ZM305 115.194C290.104 115.194 277.32 110.428 271.845 103.631C270.015 105.908 269 108.409 269 111.034C269 121.508 285.118 130 305 130C324.882 130 341 121.508 341 111.034C341 108.409 339.989 105.905 338.155 103.631C332.68 110.428 319.896 115.194 305 115.194Z" fill="white"/>
</g>
</g>
</svg>
