<svg width="24" height="24" viewBox="0 0 24 24" fill="none" xmlns="http://www.w3.org/2000/svg">
<path d="M9.49294 14.8546L9.49074 17.9506C9.48855 18.7761 9.90601 19.411 10.6377 19.6957L9.49294 14.8546ZM9.49294 14.8546C9.49294 13.1403 9.49294 11.4237 9.50832 9.70928M9.49294 14.8546L9.50832 9.70928M9.50832 9.70928C9.51052 9.24291 9.81153 8.80501 10.0686 8.57511C11.0639 7.66865 12.1449 6.53886 12.5976 5.01496L9.50832 9.70928ZM14.4959 19.1912C13.6623 19.1912 12.8347 19.1912 12.0058 19.1804C11.6402 19.1694 11.2796 19.0931 10.9391 18.9546L10.9391 18.9545L10.9277 18.9501C10.5245 18.7932 10.2894 18.4699 10.2907 17.9527L10.2907 17.9512L10.2929 14.8552V14.8546C10.2929 13.1397 10.2929 11.4267 10.3083 9.71646L10.3083 9.71305C10.3086 9.64798 10.3315 9.55286 10.3945 9.43791C10.4572 9.32352 10.539 9.22768 10.6019 9.17143L10.6019 9.17146L10.6073 9.16658C11.6188 8.24535 12.8454 6.99033 13.3644 5.24274L13.3649 5.24121C13.512 4.74232 13.5665 4.20825 13.6146 3.73647L13.6175 3.70844C13.6853 3.04701 14.054 2.8 14.4212 2.8C14.5913 2.8 14.7878 2.84971 15.0139 2.98302C15.4659 3.25453 15.7989 3.68651 15.9986 4.41261L15.9992 4.41459C16.3371 5.63099 16.1728 6.838 15.9551 7.99848L15.9414 8.07159V8.09497C15.8608 8.81773 16.4202 9.47802 17.1787 9.47802H20.035C20.2545 9.47802 20.4697 9.49282 20.6589 9.54528C20.8412 9.59581 20.9654 9.67159 21.0508 9.77439C21.1613 9.9083 21.2617 10.1494 21.1549 10.6938L21.1547 10.695C20.7498 12.7755 20.2525 14.8776 19.7739 16.8488C19.6435 17.386 19.4246 17.8925 19.1806 18.4546C19.1805 18.4548 19.1804 18.4551 19.1803 18.4553L19.0777 18.6902L19.0777 18.6902L19.0749 18.6967C18.9407 19.0117 18.6885 19.2 18.2289 19.2H18.2068C17.3866 19.1912 16.5649 19.1912 15.7482 19.1912H15.7461H14.4959ZM6.89785 18.0798L6.89785 18.0817C6.89901 18.5791 6.48782 18.9942 5.97966 18.9942H5.71819C5.2126 18.9942 4.8 18.579 4.8 18.082V10.4515C4.8 9.95449 5.2126 9.53933 5.71819 9.53933H5.97966C6.48525 9.53933 6.89785 9.95449 6.89785 10.4515L6.89785 18.0798Z" fill="#FF54A8" stroke="#FF54A8" stroke-width="1.6"/>
</svg>
