<svg width="24" height="24" viewBox="0 0 24 24" fill="none" xmlns="http://www.w3.org/2000/svg">
<path d="M9.49244 14.8546L9.49024 17.9506C9.48805 18.7761 9.90551 19.411 10.6372 19.6957L9.49244 14.8546ZM9.49244 14.8546C9.49244 13.1403 9.49244 11.4237 9.50782 9.70928M9.49244 14.8546L9.50782 9.70928M9.50782 9.70928C9.51002 9.24291 9.81103 8.80501 10.0681 8.57511C11.0634 7.66865 12.1444 6.53886 12.5971 5.01496C12.7223 4.5902 12.7706 4.12164 12.8212 3.62681C12.9222 2.64153 13.5638 2 14.4207 2C14.7569 2 15.093 2.10072 15.4226 2.29558M9.50782 9.70928L11.9884 19.9803M15.4226 2.29558L15.0114 2.98181C15.0121 2.98222 15.0128 2.98262 15.0134 2.98303M15.4226 2.29558C16.084 2.69189 16.5256 3.31371 16.7695 4.20046C17.1606 5.60832 16.9606 6.97458 16.7409 8.14597V8.15035M15.4226 2.29558L15.0155 2.98422C15.0148 2.98382 15.0141 2.98342 15.0134 2.98303M15.0134 2.98303C14.7873 2.84972 14.5908 2.8 14.4207 2.8C14.0535 2.8 13.6848 3.04701 13.617 3.70844M15.0134 2.98303C15.4654 3.25453 15.7984 3.68651 15.9981 4.41261L15.9987 4.41459C16.3366 5.63099 16.1723 6.838 15.9546 7.99848L15.9409 8.07159V8.09496M13.617 3.70844C13.617 3.70833 13.617 3.70821 13.617 3.70809L12.8212 3.62681L13.617 3.70844ZM13.617 3.70844C13.616 3.71775 13.6151 3.72709 13.6141 3.73644C13.566 4.20823 13.5115 4.74232 13.3644 5.24121L13.3639 5.24274C12.8449 6.99033 11.6183 8.24535 10.6068 9.16658L10.6014 9.17146L10.6014 9.17143C10.5385 9.22768 10.4567 9.32352 10.394 9.43791C10.331 9.55286 10.3081 9.64798 10.3078 9.71305L10.3078 9.71646H10.3078C10.2924 11.4267 10.2924 13.1397 10.2924 14.8546V14.8552L10.2902 17.9512L10.2902 17.9527C10.2889 18.4699 10.524 18.7932 10.9272 18.9501L10.9386 18.9545L10.9386 18.9546C11.2791 19.0931 11.6397 19.1694 12.0053 19.1804M12.0053 19.1804C12.0031 19.1804 12.001 19.1804 11.9989 19.1804L11.9884 19.9803M12.0053 19.1804C12.0072 19.1805 12.0092 19.1806 12.0111 19.1806L11.9884 19.9803M12.0053 19.1804C12.8342 19.1912 13.6618 19.1912 14.4954 19.1912H15.7456H15.7477C16.5644 19.1912 17.3861 19.1912 18.2063 19.2M11.9884 19.9803C12.8256 19.9912 13.6605 19.9912 14.4954 19.9912H15.7456C16.5651 19.9912 17.3847 19.9912 18.202 20M18.2063 19.2H18.202V20M18.2063 19.2H18.2284C18.688 19.2 18.9402 19.0117 19.0744 18.6967L19.0772 18.6902L19.0772 18.6902L19.1798 18.4553M18.2063 19.2C18.2078 19.2 18.2092 19.2 18.2106 19.2L18.202 20M18.202 20L19.1798 18.4553M19.1798 18.4553L19.9136 18.7739M19.1798 18.4553L19.8104 19.0103L19.9136 18.7739M19.9136 18.7739L19.1805 18.4537L19.1801 18.4545C19.4241 17.8925 19.643 17.386 19.7734 16.8488M19.9136 18.7739L19.9207 18.7575C20.158 18.2109 20.4029 17.6468 20.5508 17.0376M15.9409 8.09496C15.8603 8.81773 16.4197 9.47802 17.1782 9.47802H20.0345C20.254 9.47802 20.4692 9.49282 20.6584 9.54528C20.8408 9.59582 20.965 9.67165 21.0504 9.7745M15.9409 8.09496C15.9443 8.0651 15.9487 8.03512 15.9542 8.00509L16.7172 8.14597L16.7409 8.15035M15.9409 8.09496V8.14597V8.15035H16.7409M21.0504 9.7745C21.1608 9.90842 21.2612 10.1496 21.1544 10.6938L21.1542 10.695C20.7493 12.7755 20.252 14.8776 19.7734 16.8488M21.0504 9.7745C21.0503 9.77439 21.0502 9.77429 21.0501 9.77419L21.667 9.26481M21.0504 9.7745C21.0505 9.77465 21.0506 9.77481 21.0508 9.77497L21.667 9.26481M19.7734 16.8488C19.7734 16.8488 19.7734 16.8488 19.7734 16.8488L20.5508 17.0376M19.7734 16.8488L20.5508 17.0376M20.5508 17.0376C21.0298 15.0648 21.5308 12.9476 21.9394 10.8478C22.0735 10.1647 21.9834 9.64797 21.667 9.26481M21.667 9.26481C21.232 8.73933 20.5267 8.67802 20.0345 8.67802H17.1782C16.8969 8.67802 16.6904 8.42404 16.7409 8.15035" stroke="#1F263D" stroke-opacity="0.6" stroke-width="1.6"/>
<path d="M6.89785 18.0798L6.89785 18.0817C6.89901 18.5791 6.48782 18.9942 5.97966 18.9942H5.71819C5.2126 18.9942 4.8 18.579 4.8 18.082V10.4515C4.8 9.95449 5.2126 9.53933 5.71819 9.53933H5.97966C6.48525 9.53933 6.89785 9.95449 6.89785 10.4515L6.89785 18.0798Z" stroke="#1F263D" stroke-opacity="0.3" stroke-width="1.6"/>
</svg>
