<svg width="16" height="16" viewBox="0 0 16 16" fill="none" xmlns="http://www.w3.org/2000/svg">
<g clip-path="url(#clip0_97_949)">
<path d="M6.91058 5.59494C4.9224 5.59494 3.30664 7.19145 3.30664 9.15595C3.30664 11.119 4.92387 12.7155 6.91058 12.7155C8.89729 12.7155 10.516 11.1175 10.516 9.15595C10.5145 7.19145 8.89729 5.59494 6.91058 5.59494ZM14.4 6.49802H12.6933V4.5863L11.1948 6.067C11.837 6.93343 12.2212 7.99924 12.2212 9.15448C12.2212 12.047 9.84007 14.4 6.91058 14.4C3.98256 14.4 1.59998 12.047 1.59998 9.15448C1.59998 6.26198 3.98256 3.90752 6.91058 3.90752C8.05569 3.90752 9.11283 4.2711 9.98082 4.88097L11.5951 3.28592H9.4222V1.59998H14.4V6.49802Z" fill="#5465FF"/>
</g>
<defs>
<clipPath id="clip0_97_949">
<rect width="16" height="16" fill="white"/>
</clipPath>
</defs>
</svg>
