<svg width="24" height="24" viewBox="0 0 24 24" fill="none" xmlns="http://www.w3.org/2000/svg">
<mask id="mask0_215_1423" style="mask-type:alpha" maskUnits="userSpaceOnUse" x="0" y="0" width="24" height="24">
<rect width="24" height="24" fill="#C4C4C4"/>
</mask>
<g mask="url(#mask0_215_1423)">
<path d="M3 12C3 12.2626 3.05173 12.5227 3.15224 12.7654C3.25275 13.008 3.40007 13.2285 3.58579 13.4142C3.7715 13.5999 3.99198 13.7473 4.23463 13.8478C4.47728 13.9483 4.73736 14 5 14C5.26265 14 5.52272 13.9483 5.76537 13.8478C6.00802 13.7473 6.2285 13.5999 6.41422 13.4142C6.59993 13.2285 6.74725 13.008 6.84776 12.7654C6.94827 12.5227 7 12.2626 7 12C7 11.7374 6.94827 11.4773 6.84776 11.2346C6.74725 10.992 6.59993 10.7715 6.41422 10.5858C6.2285 10.4001 6.00802 10.2528 5.76537 10.1522C5.52272 10.0517 5.26265 10 5 10C4.73736 10 4.47728 10.0517 4.23463 10.1522C3.99198 10.2528 3.7715 10.4001 3.58579 10.5858C3.40007 10.7715 3.25275 10.992 3.15224 11.2346C3.05173 11.4773 3 11.7374 3 12Z" fill="#1F263D"/>
<path d="M10 12C10 12.2626 10.0517 12.5227 10.1522 12.7654C10.2528 13.008 10.4001 13.2285 10.5858 13.4142C10.7715 13.5999 10.992 13.7473 11.2346 13.8478C11.4773 13.9483 11.7374 14 12 14C12.2626 14 12.5227 13.9483 12.7654 13.8478C13.008 13.7473 13.2285 13.5999 13.4142 13.4142C13.5999 13.2285 13.7473 13.008 13.8478 12.7654C13.9483 12.5227 14 12.2626 14 12C14 11.7374 13.9483 11.4773 13.8478 11.2346C13.7473 10.992 13.5999 10.7715 13.4142 10.5858C13.2285 10.4001 13.008 10.2528 12.7654 10.1522C12.5227 10.0517 12.2626 10 12 10C11.7374 10 11.4773 10.0517 11.2346 10.1522C10.992 10.2528 10.7715 10.4001 10.5858 10.5858C10.4001 10.7715 10.2528 10.992 10.1522 11.2346C10.0517 11.4773 10 11.7374 10 12Z" fill="#1F263D"/>
<path d="M17 12C17 12.5304 17.2107 13.0391 17.5858 13.4142C17.9609 13.7893 18.4696 14 19 14C19.5304 14 20.0392 13.7893 20.4142 13.4142C20.7893 13.0391 21 12.5304 21 12C21 11.4696 20.7893 10.9609 20.4142 10.5858C20.0392 10.2107 19.5304 10 19 10C18.4696 10 17.9609 10.2107 17.5858 10.5858C17.2107 10.9609 17 11.4696 17 12Z" fill="#1F263D"/>
</g>
</svg>
