<svg width="120" height="120" viewBox="0 0 120 120" fill="none" xmlns="http://www.w3.org/2000/svg">
<mask id="mask0_1563_3679" style="mask-type:alpha" maskUnits="userSpaceOnUse" x="0" y="0" width="120" height="120">
<rect width="120" height="120" fill="#D9D9D9"/>
</mask>
<g mask="url(#mask0_1563_3679)">
<path d="M66.9559 32.0002L21.2941 42.473L49.0882 56.873L97.7059 44.4366L66.9559 32.0002Z" fill="#FFCFE6"/>
<path d="M49.0882 107V56.8729L97.7058 44.4365L95.7457 94.8365L49.0882 107Z" fill="#FFE2F5"/>
<path d="M21.2941 90.9093V42.4729L49.0882 56.8729V107L21.2941 90.9093Z" fill="#FFF3FB"/>
<path d="M70.0891 62.9361C69.9593 62.9946 69.8296 63.0532 69.6941 63.1088C65.7238 64.7906 61.1274 64.6095 57.0261 63.261C52.9249 61.9126 49.267 59.4577 45.9513 56.7033C43.1881 54.4079 40.5294 51.7537 39.3261 48.3686C37.4857 43.2015 39.3394 36.9582 42.7724 32.8669C45.7352 29.336 50.0898 27.1954 54.5156 26.1409C58.7913 25.1277 63.5323 24.8977 66.9224 22.1098C70.838 25.872 74.4299 30.0724 76.8263 34.9444C79.2227 39.8164 80.3693 45.4267 79.2813 50.7438C78.227 55.9191 74.8771 60.7352 70.0891 62.9361Z" fill="white"/>
<path d="M75.8268 41.0765C76.2922 43.134 76.5644 45.2765 76.4662 47.3951C76.3957 48.901 76.137 50.3935 75.6293 51.8211C74.7642 54.2679 73.1657 56.4618 71.0563 57.9508C68.8432 59.504 66.1387 60.2394 63.4727 60.2811C60.0469 60.3296 56.38 58.5417 54.5382 56.2278C52.5945 53.786 50.0087 47.5948 50.8179 41.6888C47.8441 48.7355 48.2887 51.1741 49.1124 54.0722C44.4412 52.6809 41.2034 47.805 41.2559 42.8491C41.286 39.2571 42.9247 35.7656 45.4287 33.2109C48.3174 30.2552 52.0907 28.9153 55.9677 27.9505C56.487 27.82 57.0075 27.6945 57.5283 27.5689C58.921 27.2331 60.3146 26.8971 61.6861 26.4662C62.1333 26.3191 66.9915 24.21 66.8603 24.0663C71.1216 28.8986 74.3833 34.7221 75.8268 41.0765Z" fill="url(#paint0_linear_1563_3679)"/>
<path d="M37.4614 52.8976L36.8868 51.8976L37.8607 51.2798C41.0272 49.2711 45.1231 48.6864 49.0954 49.6691L50.0672 49.9096L50.0088 50.909C49.8615 53.4311 50.6804 56.0093 52.3369 58.1418L53.6744 59.8637L51.5049 60.0799C48.725 60.3569 45.788 59.8205 43.1032 58.3605C40.65 57.0302 38.7335 55.111 37.4614 52.8976Z" fill="url(#paint1_linear_1563_3679)" stroke="white" stroke-width="2.40975"/>
<mask id="mask1_1563_3679" style="mask-type:alpha" maskUnits="userSpaceOnUse" x="21" y="42" width="29" height="62">
<path d="M21.2939 90.9091V42.4728L49.0881 56.8728V104L21.2939 90.9091Z" fill="#C3DFFF"/>
</mask>
<g mask="url(#mask1_1563_3679)">
<path d="M22.6175 42.4728L50.4116 56.8728L47.1028 85.0182L17.3234 61.4546L22.6175 42.4728Z" fill="#FFCFE7"/>
</g>
<path d="M21.2941 42.4729L49.0882 56.8729L45.7794 78.4729L16 61.4547L21.2941 42.4729Z" fill="#FFE8F7"/>
<mask id="mask2_1563_3679" style="mask-type:alpha" maskUnits="userSpaceOnUse" x="49" y="44" width="49" height="61">
<path d="M49.0884 104V56.8729L97.706 44.4365L95.7459 94.8365L49.0884 104Z" fill="#AAD0FE"/>
</mask>
<g mask="url(#mask2_1563_3679)">
<path d="M49.0884 87.6365V56.8729L100.706 44.4365L100.044 73.8911L49.0884 87.6365Z" fill="#FFCFE7"/>
</g>
<path d="M97.706 44.4365L49.0884 56.8729L55.0443 80.4365L103 64.7274L97.706 44.4365Z" fill="#FFE8F7"/>
<circle cx="8" cy="54" r="3" stroke="#F89D01" stroke-linecap="round" stroke-linejoin="round" stroke-dasharray="1 2"/>
<circle cx="37" cy="27" r="2" fill="#FA9BC8"/>
<path d="M113 76L114.35 80.0145L118 81.5L114.35 82.9855L113 87L111.65 82.9855L108 81.5L111.65 80.0145L113 76Z" fill="#FCC501"/>
<path d="M15.1547 78.9468C11.1031 80.8247 3 85.9575 3 91.466C3 98.3515 37.0331 90.2141 60.1271 78.9468C83.221 67.6796 110.569 45.1451 113 32" stroke="#FFCFE6" stroke-width="1.4" stroke-dasharray="2 2"/>
<path d="M109.72 24.1567L102.109 17.7978L112.171 22.2827L117.704 18.053C117.825 17.9602 117.918 17.8343 117.97 17.6905C118.022 17.5467 118.031 17.3909 117.997 17.2418C117.963 17.0927 117.887 16.9566 117.778 16.8496C117.668 16.7426 117.531 16.6692 117.381 16.6383L94.958 12.0163C94.8267 11.9893 94.6907 11.9959 94.5626 12.0354C94.4345 12.0749 94.3184 12.1461 94.2251 12.2424C94.1317 12.3386 94.0642 12.4569 94.0287 12.5862C93.9932 12.7154 93.9908 12.8516 94.0218 12.982L98.4158 31.3872C98.4466 31.5165 98.5092 31.6361 98.5979 31.735C98.6866 31.8339 98.7987 31.9091 98.9239 31.9537C99.0491 31.9983 99.1834 32.011 99.3148 31.9904C99.4461 31.9699 99.5702 31.9169 99.6758 31.8362L109.72 24.1567ZM111.809 30.5124L110.712 25.38L106.414 28.6982L110.603 31.3521C110.736 31.4362 110.89 31.4792 111.047 31.4757C111.204 31.4723 111.357 31.4226 111.486 31.3328C111.615 31.243 111.714 31.1172 111.772 30.9711C111.829 30.825 111.843 30.6652 111.81 30.5116L111.809 30.5124Z" fill="#FA9BC8"/>
</g>
<defs>
<linearGradient id="paint0_linear_1563_3679" x1="68.7706" y1="25.0062" x2="53.2374" y2="56.5762" gradientUnits="userSpaceOnUse">
<stop stop-color="#FF898B"/>
<stop offset="1" stop-color="#FF54A8"/>
</linearGradient>
<linearGradient id="paint1_linear_1563_3679" x1="46.7907" y1="50.1546" x2="44.2294" y2="57.6992" gradientUnits="userSpaceOnUse">
<stop stop-color="#7EDF72"/>
<stop offset="1" stop-color="#4ACF5C"/>
</linearGradient>
</defs>
</svg>
