<svg width="40" height="18" viewBox="0 0 40 18" fill="none" xmlns="http://www.w3.org/2000/svg">
<path d="M0 9C0 4.02944 4.02944 0 9 0H31C35.9706 0 40 4.02944 40 9C40 13.9706 35.9706 18 31 18H9C4.02944 18 0 13.9706 0 9Z" fill="#FF6666" fill-opacity="0.1"/>
<path d="M16.828 5.205V5.943H20.068C20.041 6.096 20.014 6.249 19.978 6.402H17.773V10.605H16.495V11.361H18.871C18.277 11.721 17.548 12.027 16.684 12.261L17.035 12.99C18.043 12.675 18.898 12.279 19.6 11.793L19.222 11.361H21.724L21.436 11.802C22.3 12.09 23.146 12.486 23.974 12.99L24.415 12.315C23.749 11.955 23.02 11.631 22.219 11.361H24.505V10.605H23.362V6.402H20.842C20.878 6.258 20.905 6.105 20.941 5.943H24.172V5.205H21.067C21.085 5.043 21.112 4.881 21.13 4.701L20.266 4.584C20.248 4.782 20.221 4.989 20.185 5.205H16.828ZM18.592 10.605V10.173H22.552V10.605H18.592ZM18.592 9.543V9.147H22.552V9.543H18.592ZM18.592 8.517V8.121H22.552V8.517H18.592ZM18.592 7.482V7.077H22.552V7.482H18.592ZM29.905 4.638H29.041C29.041 4.98 29.032 5.448 29.032 6.051C28.96 8.634 27.709 10.659 25.279 12.135L25.801 12.9C27.691 11.676 28.933 10.128 29.527 8.256C30.211 10.182 31.417 11.73 33.145 12.882L33.712 12.135C31.66 10.875 30.364 9.048 29.842 6.654C29.878 6.096 29.905 5.43 29.905 4.638Z" fill="#FF6666"/>
<path d="M13.7188 8.46875L12.749 7.49903V5.99903C12.7484 5.8003 12.6692 5.60987 12.5287 5.46935C12.3882 5.32882 12.1978 5.24962 11.999 5.24903H10.499L9.5293 4.2793C9.38836 4.13919 9.1977 4.06055 8.99897 4.06055C8.80024 4.06055 8.60958 4.13919 8.46864 4.2793L7.49903 5.24903H5.99903C5.8003 5.24962 5.60987 5.32882 5.46935 5.46935C5.32882 5.60987 5.24962 5.8003 5.24903 5.99903V7.49903L4.2793 8.46875C4.13919 8.60969 4.06055 8.80035 4.06055 8.99909C4.06055 9.19782 4.13919 9.38848 4.2793 9.52942L5.24903 10.499V11.999C5.24962 12.1978 5.32882 12.3882 5.46935 12.5287C5.60987 12.6692 5.8003 12.7484 5.99903 12.749H7.49903L8.46875 13.7188C8.60969 13.8589 8.80035 13.9375 8.99909 13.9375C9.19782 13.9375 9.38848 13.8589 9.52942 13.7188L10.499 12.749H11.999C12.1978 12.7484 12.3882 12.6692 12.5287 12.5287C12.6692 12.3882 12.7484 12.1978 12.749 11.999V10.499L13.7188 9.5293C13.8588 9.38837 13.9375 9.19773 13.9375 8.99903C13.9375 8.80032 13.8588 8.60969 13.7188 8.46875ZM8.99903 11.624L6.74903 7.49903H7.87403L8.99903 9.74903L10.124 7.49903H11.249L8.99903 11.624Z" fill="#FF6666"/>
</svg>
