<svg width="20" height="20" viewBox="0 0 20 20" fill="none" xmlns="http://www.w3.org/2000/svg">
<circle cx="9.99999" cy="10.7996" r="9.2" fill="url(#paint0_linear_580_6073)"/>
<circle cx="9.99996" cy="10.033" r="8.95" fill="url(#paint1_linear_580_6073)" stroke="url(#paint2_linear_580_6073)" stroke-width="0.5"/>
<circle cx="10" cy="10.0327" r="5.88333" fill="url(#paint3_linear_580_6073)" stroke="url(#paint4_linear_580_6073)" stroke-width="0.5"/>
<path d="M9.41386 6.86443C9.66603 6.39897 10.334 6.39897 10.5862 6.86443L11.0913 7.79677C11.2353 8.0626 11.4919 8.249 11.7892 8.30383L12.832 8.49612C13.3526 8.59211 13.559 9.22741 13.1943 9.61107L12.4637 10.3796C12.2554 10.5987 12.1574 10.9003 12.1971 11.2L12.3365 12.2512C12.406 12.776 11.8656 13.1686 11.388 12.9403L10.4314 12.4829C10.1586 12.3525 9.84146 12.3525 9.56869 12.4829L8.61203 12.9403C8.13443 13.1686 7.59402 12.776 7.66359 12.2512L7.80296 11.2C7.84269 10.9003 7.7447 10.5987 7.53638 10.3796L6.80576 9.61107C6.44101 9.22741 6.64743 8.59211 7.16804 8.49612L8.21083 8.30383C8.50816 8.249 8.76472 8.0626 8.90874 7.79677L9.41386 6.86443Z" fill="url(#paint5_linear_580_6073)" stroke="url(#paint6_linear_580_6073)" stroke-width="0.333333"/>
<defs>
<linearGradient id="paint0_linear_580_6073" x1="4.6923" y1="3.01499" x2="14.9538" y2="17.5227" gradientUnits="userSpaceOnUse">
<stop stop-color="#B07103"/>
<stop offset="1" stop-color="#B17105"/>
</linearGradient>
<linearGradient id="paint1_linear_580_6073" x1="4.69227" y1="2.24839" x2="14.9538" y2="16.7561" gradientUnits="userSpaceOnUse">
<stop stop-color="#FFED4A"/>
<stop offset="1" stop-color="#F0AD00"/>
</linearGradient>
<linearGradient id="paint2_linear_580_6073" x1="5.01662" y1="1.98301" x2="12.3" y2="18.8497" gradientUnits="userSpaceOnUse">
<stop stop-color="white"/>
<stop offset="1" stop-color="#FFCB22"/>
</linearGradient>
<linearGradient id="paint3_linear_580_6073" x1="6.72892" y1="4.85349" x2="14.0889" y2="14.9394" gradientUnits="userSpaceOnUse">
<stop stop-color="#FCC501"/>
<stop offset="1" stop-color="#F89D01"/>
</linearGradient>
<linearGradient id="paint4_linear_580_6073" x1="6.55003" y1="4.66608" x2="11.9167" y2="15.7827" gradientUnits="userSpaceOnUse">
<stop stop-color="#A26203"/>
<stop offset="1" stop-color="#FEF78A"/>
</linearGradient>
<linearGradient id="paint5_linear_580_6073" x1="7.34618" y1="6.14031" x2="12.4769" y2="13.3942" gradientUnits="userSpaceOnUse">
<stop stop-color="#FFF7BB"/>
<stop offset="1" stop-color="#F0AF00"/>
</linearGradient>
<linearGradient id="paint6_linear_580_6073" x1="7.50836" y1="6.00762" x2="11.15" y2="14.441" gradientUnits="userSpaceOnUse">
<stop stop-color="white"/>
<stop offset="1" stop-color="#FFCB22"/>
</linearGradient>
</defs>
</svg>
