<svg width="20" height="20" viewBox="0 0 20 20" fill="none" xmlns="http://www.w3.org/2000/svg">
<path d="M10 7.14262L0 3.80929L10 0.952148L20 3.80929L10 7.14262Z" fill="#FFB906"/>
<path d="M0.909119 5.71387L10 7.61863V19.9996L0.909119 16.1901V5.71387Z" fill="url(#paint0_linear_580_6087)"/>
<path d="M10 7.61863L19.0909 5.71387V16.1901L10 19.9996V7.61863Z" fill="url(#paint1_linear_580_6087)"/>
<mask id="mask0_580_6087" style="mask-type:alpha" maskUnits="userSpaceOnUse" x="10" y="5" width="10" height="15">
<path d="M10 7.61863L19.0909 5.71387V16.1901L10 19.9996V7.61863Z" fill="url(#paint2_linear_580_6087)"/>
</mask>
<g mask="url(#mask0_580_6087)">
<rect x="12.7272" y="4.76172" width="2.72727" height="15.2381" fill="url(#paint3_linear_580_6087)"/>
</g>
<mask id="mask1_580_6087" style="mask-type:alpha" maskUnits="userSpaceOnUse" x="0" y="5" width="10" height="15">
<path d="M0.909119 5.71387L10 7.61863V19.9996L0.909119 16.1901V5.71387Z" fill="url(#paint4_linear_580_6087)"/>
</mask>
<g mask="url(#mask1_580_6087)">
<rect x="4.54538" y="6.66602" width="2.72727" height="13.3333" fill="url(#paint5_linear_580_6087)"/>
</g>
<path d="M0 3.80957L10 7.1429V10L0 6.66671V3.80957Z" fill="url(#paint6_linear_580_6087)"/>
<path d="M20 3.80957L10 7.1429V10L20 6.66671V3.80957Z" fill="url(#paint7_linear_580_6087)"/>
<mask id="mask2_580_6087" style="mask-type:alpha" maskUnits="userSpaceOnUse" x="0" y="3" width="10" height="7">
<path d="M0 3.80957L10 7.1429V10L0 6.66671V3.80957Z" fill="url(#paint8_linear_580_6087)"/>
</mask>
<g mask="url(#mask2_580_6087)">
<rect x="3.63629" y="4.76172" width="2.72727" height="4.7619" fill="url(#paint9_linear_580_6087)"/>
</g>
<mask id="mask3_580_6087" style="mask-type:alpha" maskUnits="userSpaceOnUse" x="10" y="3" width="10" height="7">
<path d="M20 3.80957L10 7.1429V10L20 6.66671V3.80957Z" fill="url(#paint10_linear_580_6087)"/>
</mask>
<g mask="url(#mask3_580_6087)">
<rect x="13.6363" y="4.76172" width="2.72727" height="4.7619" fill="url(#paint11_linear_580_6087)"/>
</g>
<mask id="mask4_580_6087" style="mask-type:alpha" maskUnits="userSpaceOnUse" x="0" y="0" width="20" height="8">
<path d="M10 7.14262L0 3.80929L10 0.952148L20 3.80929L10 7.14262Z" fill="#FFB906"/>
</mask>
<g mask="url(#mask4_580_6087)">
<path fill-rule="evenodd" clip-rule="evenodd" d="M10.3768 3.1512L3.20986 0.897461L2.74984 2.50299L7.43619 3.97667L1.63016 5.60647L2.02158 7.13686L10.1921 4.84331L18.4226 7.43149L18.8827 5.82597L13.1328 4.01785L17.8276 2.69996L17.4362 1.16957L10.3768 3.1512Z" fill="url(#paint12_linear_580_6087)"/>
</g>
<path d="M5.6722 0.167369C7.29841 -0.68451 9.91462 1.9134 11.1267 3.5007C9.61159 3.9769 6.58135 4.45307 5.6722 3.97691C4.52225 3.37464 3.85417 1.11973 5.6722 0.167369Z" fill="url(#paint13_linear_580_6087)"/>
<path d="M14.5455 0.167369C12.9192 -0.68451 10.303 1.9134 9.09091 3.5007C10.6061 3.9769 13.6363 4.45307 14.5455 3.97691C15.6954 3.37464 16.3635 1.11973 14.5455 0.167369Z" fill="url(#paint14_linear_580_6087)"/>
<defs>
<linearGradient id="paint0_linear_580_6087" x1="5.45457" y1="5.71387" x2="5.45457" y2="19.9996" gradientUnits="userSpaceOnUse">
<stop stop-color="#FF7B07"/>
<stop offset="1" stop-color="#FFA309"/>
</linearGradient>
<linearGradient id="paint1_linear_580_6087" x1="14.5455" y1="5.71387" x2="14.5455" y2="19.9996" gradientUnits="userSpaceOnUse">
<stop stop-color="#FF6B00"/>
<stop offset="1" stop-color="#FFA309"/>
</linearGradient>
<linearGradient id="paint2_linear_580_6087" x1="14.5455" y1="5.71387" x2="14.5455" y2="19.9996" gradientUnits="userSpaceOnUse">
<stop stop-color="#FF6B00"/>
<stop offset="1" stop-color="#FFA309"/>
</linearGradient>
<linearGradient id="paint3_linear_580_6087" x1="14.0908" y1="4.76172" x2="14.0908" y2="19.9998" gradientUnits="userSpaceOnUse">
<stop stop-color="#F13A00"/>
<stop offset="1" stop-color="#FB7E00"/>
</linearGradient>
<linearGradient id="paint4_linear_580_6087" x1="5.45457" y1="5.71387" x2="5.45457" y2="19.9996" gradientUnits="userSpaceOnUse">
<stop stop-color="#FF7B07"/>
<stop offset="1" stop-color="#FFA309"/>
</linearGradient>
<linearGradient id="paint5_linear_580_6087" x1="5.90902" y1="6.66602" x2="5.90902" y2="19.9993" gradientUnits="userSpaceOnUse">
<stop stop-color="#F13A00"/>
<stop offset="1" stop-color="#FB7E00"/>
</linearGradient>
<linearGradient id="paint6_linear_580_6087" x1="4.54545" y1="3.80957" x2="4.54545" y2="10" gradientUnits="userSpaceOnUse">
<stop stop-color="#FC9C08"/>
<stop offset="1" stop-color="#F96211"/>
</linearGradient>
<linearGradient id="paint7_linear_580_6087" x1="15" y1="3.80957" x2="15" y2="10" gradientUnits="userSpaceOnUse">
<stop stop-color="#FC9C08"/>
<stop offset="1" stop-color="#F96211"/>
</linearGradient>
<linearGradient id="paint8_linear_580_6087" x1="4.54545" y1="3.80957" x2="4.54545" y2="10" gradientUnits="userSpaceOnUse">
<stop stop-color="#FC9C08"/>
<stop offset="1" stop-color="#F96211"/>
</linearGradient>
<linearGradient id="paint9_linear_580_6087" x1="4.99993" y1="4.76172" x2="4.99993" y2="9.52362" gradientUnits="userSpaceOnUse">
<stop stop-color="#FF3D00"/>
<stop offset="1" stop-color="#FF5C00"/>
</linearGradient>
<linearGradient id="paint10_linear_580_6087" x1="15" y1="3.80957" x2="15" y2="10" gradientUnits="userSpaceOnUse">
<stop stop-color="#FC9C08"/>
<stop offset="1" stop-color="#F96211"/>
</linearGradient>
<linearGradient id="paint11_linear_580_6087" x1="14.9999" y1="4.76172" x2="14.9999" y2="9.52362" gradientUnits="userSpaceOnUse">
<stop stop-color="#FF3D00"/>
<stop offset="1" stop-color="#FF5C00"/>
</linearGradient>
<linearGradient id="paint12_linear_580_6087" x1="10.2564" y1="0.897461" x2="10.2564" y2="7.43149" gradientUnits="userSpaceOnUse">
<stop stop-color="#F23A00"/>
<stop offset="1" stop-color="#FF5C00"/>
</linearGradient>
<linearGradient id="paint13_linear_580_6087" x1="7.83609" y1="0" x2="7.83609" y2="4.17414" gradientUnits="userSpaceOnUse">
<stop stop-color="#FF3D00"/>
<stop offset="1" stop-color="#FF7A30"/>
</linearGradient>
<linearGradient id="paint14_linear_580_6087" x1="12.3816" y1="0" x2="12.3816" y2="4.17414" gradientUnits="userSpaceOnUse">
<stop stop-color="#FF3D00"/>
<stop offset="1" stop-color="#FF7A30"/>
</linearGradient>
</defs>
</svg>
