<svg width="56" height="56" viewBox="0 0 56 56" fill="none" xmlns="http://www.w3.org/2000/svg">
<circle cx="28.0001" cy="29.0266" r="25.76" fill="url(#paint0_linear_580_6112)"/>
<circle cx="28.0001" cy="26.8801" r="25.06" fill="url(#paint1_linear_580_6112)" stroke="url(#paint2_linear_580_6112)" stroke-width="1.4"/>
<circle cx="28.0004" cy="26.8794" r="16.4733" fill="url(#paint3_linear_580_6112)" stroke="url(#paint4_linear_580_6112)" stroke-width="1.4"/>
<path d="M26.3591 18.0091C27.0652 16.7058 28.9355 16.7058 29.6416 18.0091L31.056 20.6196C31.4592 21.364 32.1776 21.8859 33.0101 22.0394L35.9299 22.5778C37.3876 22.8466 37.9656 24.6254 36.9443 25.6997L34.8986 27.8515C34.3153 28.465 34.0409 29.3095 34.1522 30.1487L34.5424 33.092C34.7372 34.5614 33.224 35.6608 31.8867 35.0214L29.2081 33.7408C28.4443 33.3756 27.5564 33.3756 26.7926 33.7408L24.114 35.0214C22.7767 35.6608 21.2635 34.5614 21.4584 33.092L21.8486 30.1487C21.9598 29.3095 21.6854 28.465 21.1022 27.8515L19.0564 25.6997C18.0351 24.6254 18.6131 22.8466 20.0708 22.5778L22.9906 22.0394C23.8231 21.8859 24.5415 21.364 24.9448 20.6196L26.3591 18.0091Z" fill="url(#paint5_linear_580_6112)" stroke="url(#paint6_linear_580_6112)" stroke-width="0.933333"/>
<defs>
<linearGradient id="paint0_linear_580_6112" x1="13.1386" y1="7.22968" x2="41.8709" y2="47.8512" gradientUnits="userSpaceOnUse">
<stop stop-color="#B07103"/>
<stop offset="1" stop-color="#B17105"/>
</linearGradient>
<linearGradient id="paint1_linear_580_6112" x1="13.1385" y1="5.0832" x2="41.8708" y2="45.7047" gradientUnits="userSpaceOnUse">
<stop stop-color="#FFED4A"/>
<stop offset="1" stop-color="#F0AD00"/>
</linearGradient>
<linearGradient id="paint2_linear_580_6112" x1="14.0467" y1="4.34012" x2="34.4401" y2="51.5668" gradientUnits="userSpaceOnUse">
<stop stop-color="white"/>
<stop offset="1" stop-color="#FFCB22"/>
</linearGradient>
<linearGradient id="paint3_linear_580_6112" x1="18.8412" y1="12.3775" x2="39.4492" y2="40.6181" gradientUnits="userSpaceOnUse">
<stop stop-color="#FCC501"/>
<stop offset="1" stop-color="#F89D01"/>
</linearGradient>
<linearGradient id="paint4_linear_580_6112" x1="18.3404" y1="11.8527" x2="33.367" y2="42.9794" gradientUnits="userSpaceOnUse">
<stop stop-color="#A26203"/>
<stop offset="1" stop-color="#FEF78A"/>
</linearGradient>
<linearGradient id="paint5_linear_580_6112" x1="20.5696" y1="15.9815" x2="34.9357" y2="36.2923" gradientUnits="userSpaceOnUse">
<stop stop-color="#FFF7BB"/>
<stop offset="1" stop-color="#F0AF00"/>
</linearGradient>
<linearGradient id="paint6_linear_580_6112" x1="21.0237" y1="15.61" x2="31.2204" y2="39.2233" gradientUnits="userSpaceOnUse">
<stop stop-color="white"/>
<stop offset="1" stop-color="#FFCB22"/>
</linearGradient>
</defs>
</svg>
