<svg width="320" height="124" viewBox="0 0 320 124" fill="none" xmlns="http://www.w3.org/2000/svg">
<path d="M0 0H320V124H0V0Z" fill="url(#paint0_linear_580_6028)"/>
<path d="M0 0H320V124H0V0Z" fill="url(#paint1_linear_580_6028)"/>
<mask id="mask0_580_6028" style="mask-type:alpha" maskUnits="userSpaceOnUse" x="0" y="0" width="320" height="124">
<path d="M0 18C0 8.05887 8.05887 0 18 0H302C311.941 0 320 8.05887 320 18V124H0V18Z" fill="url(#paint2_linear_580_6028)"/>
</mask>
<g mask="url(#mask0_580_6028)">
<g opacity="0.4">
<path d="M260.682 32.5254C258.027 28.0596 259.494 22.2867 263.96 19.6313C268.426 16.9758 274.199 18.4432 276.854 22.909L288.073 41.7761L271.901 51.3925L260.682 32.5254Z" fill="url(#paint3_linear_580_6028)"/>
<path d="M303.447 43.3961C307.913 40.7406 309.38 34.9677 306.725 30.502C304.069 26.0363 298.296 24.5688 293.83 27.2243L274.963 38.4434L284.58 54.6152L303.447 43.3961Z" fill="url(#paint4_linear_580_6028)"/>
<path fill-rule="evenodd" clip-rule="evenodd" d="M245.245 66.2505C243.789 71.9813 243.06 74.8466 244.388 77.0795C245.716 79.3123 248.581 80.0407 254.312 81.4975L284.704 89.2231C290.434 90.6798 293.3 91.4082 295.533 90.0805C297.765 88.7527 298.494 85.8874 299.951 80.1567L303.813 64.9608C305.27 59.2301 305.998 56.3647 304.671 54.1319C303.343 51.899 300.478 51.1706 294.747 49.7139L264.355 41.9883C258.624 40.5315 255.759 39.8031 253.526 41.1309C251.293 42.4586 250.565 45.324 249.108 51.0547L245.245 66.2505Z" fill="url(#paint5_linear_580_6028)"/>
<path fill-rule="evenodd" clip-rule="evenodd" d="M263.43 83.8154L275.586 86.9057L284.857 50.4356L272.7 47.3454L263.43 83.8154Z" fill="url(#paint6_linear_580_6028)"/>
<rect opacity="0.395601" width="56.4449" height="11.7593" transform="matrix(0.969177 0.246366 0.246366 -0.969177 248.529 53.335)" fill="url(#paint7_linear_580_6028)"/>
<path fill-rule="evenodd" clip-rule="evenodd" d="M246.507 35.8323C246.866 34.4201 247.045 33.7141 247.311 33.1566C248.404 30.8673 250.768 29.4615 253.301 29.5949C253.918 29.6273 254.624 29.8068 256.036 30.1658L307.702 43.2993C309.114 43.6583 309.82 43.8378 310.378 44.1038C312.667 45.1964 314.073 47.5604 313.939 50.0936C313.907 50.7104 313.728 51.4165 313.369 52.8287C313.01 54.2408 312.83 54.9469 312.564 55.5044C311.471 57.7937 309.107 59.1994 306.574 59.0661C305.957 59.0336 305.251 58.8541 303.839 58.4952L252.173 45.3616C250.761 45.0027 250.055 44.8232 249.498 44.5571C247.208 43.4646 245.803 41.1005 245.936 38.5674C245.968 37.9505 246.148 37.2445 246.507 35.8323Z" fill="url(#paint8_linear_580_6028)"/>
<rect x="275.791" y="35.1875" width="12.5433" height="15.6791" transform="rotate(14.2626 275.791 35.1875)" fill="#FFCB67"/>
</g>
<g opacity="0.4">
<path d="M205.744 52.1508C203.515 50.8637 202.751 48.0131 204.038 45.7838C205.325 43.5545 208.176 42.7907 210.405 44.0778L219.823 49.5156L215.162 57.5885L205.744 52.1508Z" fill="url(#paint9_linear_580_6028)"/>
<path d="M226.86 46.4925C228.148 44.2632 227.384 41.4127 225.154 40.1256C222.925 38.8385 220.075 39.6023 218.787 41.8316L213.35 51.2501L221.423 55.911L226.86 46.4925Z" fill="url(#paint10_linear_580_6028)"/>
<path fill-rule="evenodd" clip-rule="evenodd" d="M207.24 70.4659C207.998 73.2957 208.377 74.7106 209.492 75.3541C210.606 75.9976 212.021 75.6185 214.851 74.8603L229.858 70.8392C232.688 70.0809 234.102 69.7018 234.746 68.5872C235.39 67.4725 235.01 66.0577 234.252 63.2279L232.242 55.7244C231.483 52.8946 231.104 51.4798 229.99 50.8362C228.875 50.1927 227.46 50.5718 224.63 51.33L209.623 55.3511C206.794 56.1094 205.379 56.4885 204.735 57.6031C204.092 58.7178 204.471 60.1327 205.229 62.9624L207.24 70.4659Z" fill="url(#paint11_linear_580_6028)"/>
<path fill-rule="evenodd" clip-rule="evenodd" d="M219.353 73.6543L225.356 72.0458L220.53 54.0374L214.528 55.6458L219.353 73.6543Z" fill="url(#paint12_linear_580_6028)"/>
<rect opacity="0.395601" width="27.9656" height="5.82616" transform="matrix(0.965926 -0.258819 -0.258819 -0.965926 205.531 64.0879)" fill="url(#paint13_linear_580_6028)"/>
<path fill-rule="evenodd" clip-rule="evenodd" d="M200.418 57.0135C200.231 56.3162 200.138 55.9675 200.118 55.6621C200.035 54.408 200.717 53.2279 201.844 52.6721C202.118 52.5367 202.467 52.4433 203.164 52.2564L228.676 45.4205C229.374 45.2337 229.722 45.1403 230.028 45.1202C231.282 45.038 232.462 45.7194 233.018 46.8466C233.153 47.121 233.247 47.4697 233.433 48.167C233.62 48.8643 233.714 49.213 233.734 49.5184C233.816 50.7724 233.135 51.9526 232.007 52.5084C231.733 52.6438 231.384 52.7372 230.687 52.924L205.175 59.76C204.478 59.9468 204.129 60.0402 203.824 60.0602C202.569 60.1424 201.389 59.4611 200.834 58.3339C200.698 58.0594 200.605 57.7108 200.418 57.0135Z" fill="url(#paint14_linear_580_6028)"/>
<rect x="212.919" y="49.6426" width="6.21457" height="7.76822" transform="rotate(-15 212.919 49.6426)" fill="#FFCB67"/>
</g>
<path d="M291 45.3778L299.378 37L304 41.0444L295.333 50L291 45.3778Z" fill="#FF63F0"/>
<path d="M173 34.3778L181.378 26L186 30.0444L177.333 39L173 34.3778Z" fill="white" fill-opacity="0.4"/>
<path d="M290 6.24444L302.244 -6L309 -0.0888886L296.333 13L290 6.24444Z" fill="#AD86FF"/>
<path d="M225.763 12.7162L237.487 11.008L238.775 17.0133L226.474 19.012L225.763 12.7162Z" fill="white" fill-opacity="0.4"/>
<path d="M211.954 32.1972L221.882 25.7299L225.569 30.6416L215.24 37.6146L211.954 32.1972Z" fill="#AD86FF"/>
<path d="M188.199 13.5473L195.841 8.56893L198.679 12.3498L190.728 17.7174L188.199 13.5473Z" fill="#AD86FF"/>
<path d="M6.50445 58.2124L12.4292 51.2788L16.2199 54.1042L10.1082 61.4986L6.50445 58.2124Z" fill="#AD86FF"/>
</g>
<defs>
<linearGradient id="paint0_linear_580_6028" x1="160" y1="0" x2="160" y2="124" gradientUnits="userSpaceOnUse">
<stop stop-color="#8F1FFF" stop-opacity="0.58"/>
<stop offset="1" stop-color="#D885FF" stop-opacity="0"/>
</linearGradient>
<linearGradient id="paint1_linear_580_6028" x1="303.5" y1="1.28407e-06" x2="270" y2="84" gradientUnits="userSpaceOnUse">
<stop stop-color="#75BDFF" stop-opacity="0.58"/>
<stop offset="1" stop-color="#85BDFF" stop-opacity="0"/>
</linearGradient>
<linearGradient id="paint2_linear_580_6028" x1="174" y1="33" x2="173.5" y2="79.5" gradientUnits="userSpaceOnUse">
<stop stop-color="#FF55A9"/>
<stop offset="1" stop-color="#FF858B" stop-opacity="0"/>
<stop offset="1" stop-color="#FF858B" stop-opacity="0"/>
</linearGradient>
<linearGradient id="paint3_linear_580_6028" x1="264.257" y1="18.9264" x2="272.205" y2="38.2071" gradientUnits="userSpaceOnUse">
<stop stop-color="#FFD075"/>
<stop offset="1" stop-color="#FCB637"/>
</linearGradient>
<linearGradient id="paint4_linear_580_6028" x1="306.8" y1="29.7407" x2="290.61" y2="42.8855" gradientUnits="userSpaceOnUse">
<stop stop-color="#FFD075"/>
<stop offset="1" stop-color="#FCB637"/>
</linearGradient>
<linearGradient id="paint5_linear_580_6028" x1="270.28" y1="82.3211" x2="279.551" y2="45.8511" gradientUnits="userSpaceOnUse">
<stop stop-color="#FF8789"/>
<stop offset="1" stop-color="#FF55A9"/>
</linearGradient>
<linearGradient id="paint6_linear_580_6028" x1="269.508" y1="85.3606" x2="278.779" y2="48.8905" gradientUnits="userSpaceOnUse">
<stop stop-color="#FFCB67" stop-opacity="0.7"/>
<stop offset="1" stop-color="#FFCB67"/>
</linearGradient>
<linearGradient id="paint7_linear_580_6028" x1="0" y1="0" x2="0" y2="11.7593" gradientUnits="userSpaceOnUse">
<stop stop-color="#D22382" stop-opacity="0.01"/>
<stop offset="1" stop-color="#CD2375"/>
</linearGradient>
<linearGradient id="paint8_linear_580_6028" x1="250.993" y1="28.8839" x2="247.185" y2="43.8643" gradientUnits="userSpaceOnUse">
<stop stop-color="#FF55A9"/>
<stop offset="1" stop-color="#FF6F98"/>
</linearGradient>
<linearGradient id="paint9_linear_580_6028" x1="203.996" y1="45.4071" x2="212.1" y2="51.816" gradientUnits="userSpaceOnUse">
<stop stop-color="#FFD583"/>
<stop offset="1" stop-color="#FCB637"/>
</linearGradient>
<linearGradient id="paint10_linear_580_6028" x1="225.003" y1="39.7783" x2="221.188" y2="49.3808" gradientUnits="userSpaceOnUse">
<stop stop-color="#FFD583"/>
<stop offset="1" stop-color="#FCB637"/>
</linearGradient>
<linearGradient id="paint11_linear_580_6028" x1="221.952" y1="71.349" x2="217.127" y2="53.3406" gradientUnits="userSpaceOnUse">
<stop stop-color="#FF8789"/>
<stop offset="1" stop-color="#FF55A9"/>
</linearGradient>
<linearGradient id="paint12_linear_580_6028" x1="222.354" y1="72.8501" x2="217.529" y2="54.8416" gradientUnits="userSpaceOnUse">
<stop stop-color="#FFCB67" stop-opacity="0.7"/>
<stop offset="1" stop-color="#FFCB67"/>
</linearGradient>
<linearGradient id="paint13_linear_580_6028" x1="0" y1="0" x2="0" y2="5.82616" gradientUnits="userSpaceOnUse">
<stop stop-color="#D22382" stop-opacity="0.01"/>
<stop offset="1" stop-color="#CD2375"/>
</linearGradient>
<linearGradient id="paint14_linear_580_6028" x1="200.674" y1="52.9237" x2="202.656" y2="60.3208" gradientUnits="userSpaceOnUse">
<stop stop-color="#FF55A9"/>
<stop offset="1" stop-color="#FF6F98"/>
</linearGradient>
</defs>
</svg>
