<svg width="60" height="60" viewBox="0 0 60 60" fill="none" xmlns="http://www.w3.org/2000/svg">
<g clip-path="url(#clip0_1898_3162)">
<circle cx="30" cy="30" r="30" fill="#56F2B1" fill-opacity="0.3"/>
<path d="M43.9844 31.0611C43.9844 31.0611 42.5411 28.7028 40.9379 28.7028C39.3347 28.7028 37.6517 31.1408 37.6517 31.1408C37.6517 31.1408 36.1315 28.6583 34.4438 28.7043C33.2234 28.7381 32.2858 29.7623 31.7278 30.897V40.2166C31.6171 41.497 31.5341 41.96 31.3159 42.6009C31.0884 43.2756 30.6457 43.8061 30.2307 44.1726C29.7388 44.605 29.2147 44.9285 28.6567 45.111C28.0972 45.295 27.6223 45.3333 26.8876 45.3333C26.2174 45.3333 25.6195 45.2321 25.0892 45.0312C24.584 44.8449 24.1264 44.5496 23.7489 44.1665C23.3762 43.7794 23.0902 43.3179 22.9097 42.8125C22.716 42.285 22.6176 41.4371 22.6176 40.7839V39.8854H25.1707C25.1707 40.7287 25.1646 42.0934 25.4735 42.5227C25.7825 42.9521 26.2543 43.1422 26.8861 43.1667C27.4594 43.1882 27.9159 42.8907 27.9159 42.8907C27.9159 42.8907 28.3263 42.5288 28.4308 42.213C28.523 41.937 28.5538 41.454 28.5538 41.454C28.5538 41.454 28.6245 40.7073 28.6245 40.281V30.7482C28.0527 30.1042 27.1212 28.6277 25.784 28.6629C23.9072 28.7105 22.3379 31.0611 22.3379 31.0611C22.3379 31.0611 20.4135 28.6629 19.1301 28.6629C17.8466 28.6629 16.0037 31.0611 16.0037 31.0611C16.0037 31.0611 15.4426 18.5061 28.1911 17.2258L30.0355 14.6667L31.7985 17.2258C44.9465 18.0262 43.9843 31.0611 43.9843 31.0611H43.9844Z" fill="#56F2B1"/>
</g>
<defs>
<clipPath id="clip0_1898_3162">
<rect width="60" height="60" fill="white"/>
</clipPath>
</defs>
</svg>
