<svg width="24" height="24" viewBox="0 0 24 24" fill="none" xmlns="http://www.w3.org/2000/svg">
<mask id="mask0_880_4016" style="mask-type:alpha" maskUnits="userSpaceOnUse" x="0" y="0" width="24" height="24">
<rect width="24" height="24" fill="#C4C4C4"/>
</mask>
<g mask="url(#mask0_880_4016)">
<g filter="url(#filter0_i_880_4016)">
<path fill-rule="evenodd" clip-rule="evenodd" d="M14.75 2.83398H9.25008V5.58398C9.25008 6.5965 8.42927 7.41732 7.41674 7.41732C6.40422 7.41732 5.58341 6.59651 5.58341 5.58398V2.83398H5C2.79086 2.83398 1 4.62484 1 6.83398V19.0007C1 21.2098 2.79086 23.0007 5 23.0007H19C21.2091 23.0007 23 21.2098 23 19.0007V6.83398C23 4.62485 21.2091 2.83398 19 2.83398H18.4167V5.58398C18.4167 6.5965 17.5959 7.41732 16.5833 7.41732C15.5708 7.41732 14.75 6.59651 14.75 5.58398V2.83398Z" fill="url(#paint0_linear_880_4016)"/>
</g>
<rect x="3.75" y="9.25" width="16.5" height="11" rx="2" fill="white" fill-opacity="0.3"/>
<path d="M8.7915 13.8333L11.5415 16.5833L16.1248 12" stroke="white" stroke-width="3" stroke-linecap="round" stroke-linejoin="round"/>
<rect x="6.5" y="1" width="1.83333" height="5.5" rx="0.916667" fill="url(#paint1_linear_880_4016)"/>
<rect x="15.6665" y="1" width="1.83333" height="5.5" rx="0.916667" fill="url(#paint2_linear_880_4016)"/>
</g>
<defs>
<filter id="filter0_i_880_4016" x="1" y="-1.16602" width="22" height="24.167" filterUnits="userSpaceOnUse" color-interpolation-filters="sRGB">
<feFlood flood-opacity="0" result="BackgroundImageFix"/>
<feBlend mode="normal" in="SourceGraphic" in2="BackgroundImageFix" result="shape"/>
<feColorMatrix in="SourceAlpha" type="matrix" values="0 0 0 0 0 0 0 0 0 0 0 0 0 0 0 0 0 0 127 0" result="hardAlpha"/>
<feOffset dy="-4"/>
<feGaussianBlur stdDeviation="2"/>
<feComposite in2="hardAlpha" operator="arithmetic" k2="-1" k3="1"/>
<feColorMatrix type="matrix" values="0 0 0 0 1 0 0 0 0 1 0 0 0 0 1 0 0 0 0.25 0"/>
<feBlend mode="normal" in2="shape" result="effect1_innerShadow_880_4016"/>
</filter>
<linearGradient id="paint0_linear_880_4016" x1="2.83333" y1="7.87565" x2="21.1667" y2="14.2923" gradientUnits="userSpaceOnUse">
<stop stop-color="#FF54A8"/>
<stop offset="1" stop-color="#FF9580"/>
</linearGradient>
<linearGradient id="paint1_linear_880_4016" x1="7.41667" y1="1" x2="7.41667" y2="6.5" gradientUnits="userSpaceOnUse">
<stop stop-color="#FF54A8"/>
<stop offset="1" stop-color="#FF9580"/>
</linearGradient>
<linearGradient id="paint2_linear_880_4016" x1="16.5832" y1="1" x2="16.5832" y2="6.5" gradientUnits="userSpaceOnUse">
<stop stop-color="#FF54A8"/>
<stop offset="1" stop-color="#FF9580"/>
</linearGradient>
</defs>
</svg>
