<svg width="12" height="12" viewBox="0 0 12 12" fill="none" xmlns="http://www.w3.org/2000/svg">
<path fill-rule="evenodd" clip-rule="evenodd" d="M6 0C2.688 0 0 2.6886 0 6C0 9.3126 2.688 12 6 12C9.318 12 12 9.3126 12 6C12 2.6886 9.318 0 6 0Z" fill="#FF9900"/>
<path fill-rule="evenodd" clip-rule="evenodd" d="M5.99992 3.19922C5.71192 3.19922 5.47192 3.43982 5.47192 3.72722V6.37922C5.47192 6.66782 5.71192 6.90122 5.99992 6.90122C6.28792 6.90122 6.52192 6.66782 6.52192 6.37922V3.72722C6.52192 3.43982 6.28792 3.19922 5.99992 3.19922ZM5.47797 8.28128C5.47797 8.56928 5.71197 8.80928 6.00597 8.80928C6.29397 8.80928 6.52797 8.56928 6.52797 8.28128C6.52797 7.99328 6.29397 7.75928 5.99997 7.75928C5.71197 7.75928 5.47797 7.99328 5.47797 8.28128Z" fill="white"/>
</svg>
