<svg width="30" height="30" viewBox="0 0 30 30" fill="none" xmlns="http://www.w3.org/2000/svg">
<circle cx="15" cy="15" r="15" fill="#FCBE01" fill-opacity="0.2"/>
<path d="M21.7082 14.272H19.6249C19.0723 14.272 18.5424 14.4915 18.1517 14.8822C17.761 15.2729 17.5415 15.8028 17.5415 16.3553C17.5415 16.9079 17.761 17.4378 18.1517 17.8285C18.5424 18.2192 19.0723 18.4387 19.6249 18.4387H21.7082V20.522C21.7082 20.7983 21.5985 21.0632 21.4031 21.2586C21.2078 21.4539 20.9428 21.5637 20.6665 21.5637H8.16654C7.89028 21.5637 7.62533 21.4539 7.42998 21.2586C7.23462 21.0632 7.12488 20.7983 7.12488 20.522V12.1887C7.12488 12.0519 7.15182 11.9164 7.20417 11.79C7.25652 11.6637 7.33325 11.5488 7.42998 11.4521C7.5267 11.3554 7.64154 11.2786 7.76792 11.2263C7.8943 11.174 8.02975 11.147 8.16654 11.147H20.6665C20.8033 11.147 20.9388 11.174 21.0652 11.2263C21.1916 11.2786 21.3064 11.3554 21.4031 11.4521C21.4998 11.5488 21.5766 11.6637 21.6289 11.79C21.6813 11.9164 21.7082 12.0519 21.7082 12.1887V14.272ZM18.0624 7.5418V10.1053H8.68738L16.5978 6.58972C16.7564 6.51925 16.9301 6.48954 17.1031 6.50326C17.2761 6.51699 17.4429 6.57373 17.5885 6.66832C17.734 6.76291 17.8535 6.89235 17.9363 7.0449C18.0191 7.19744 18.0624 7.36825 18.0624 7.5418V7.5418ZM19.6249 15.3137H21.7082C21.845 15.3137 21.9805 15.3406 22.1069 15.3929C22.2333 15.4453 22.3481 15.522 22.4449 15.6187C22.5416 15.7154 22.6184 15.8303 22.6707 15.9567C22.7231 16.0831 22.75 16.2185 22.75 16.3553C22.75 16.4921 22.7231 16.6276 22.6707 16.754C22.6184 16.8804 22.5416 16.9952 22.4449 17.092C22.3481 17.1887 22.2333 17.2654 22.1069 17.3178C21.9805 17.3701 21.845 17.397 21.7082 17.397H19.6249C19.4881 17.397 19.3526 17.3701 19.2262 17.3178C19.0998 17.2654 18.9849 17.1887 18.8882 17.092C18.7915 16.9952 18.7147 16.8804 18.6624 16.754C18.61 16.6276 18.5831 16.4921 18.5831 16.3553C18.5831 16.2185 18.61 16.0831 18.6624 15.9567C18.7147 15.8303 18.7915 15.7154 18.8882 15.6187C18.9849 15.522 19.0998 15.4453 19.2262 15.3929C19.3526 15.3406 19.4881 15.3137 19.6249 15.3137V15.3137Z" fill="#FCBE01"/>
</svg>
