<svg width="375" height="180" viewBox="0 0 375 180" fill="none" xmlns="http://www.w3.org/2000/svg">
<rect width="375" height="180" fill="url(#paint0_linear_632_7563)"/>
<mask id="mask0_632_7563" style="mask-type:alpha" maskUnits="userSpaceOnUse" x="0" y="0" width="375" height="180">
<rect width="375" height="180" fill="url(#paint1_linear_632_7563)"/>
</mask>
<g mask="url(#mask0_632_7563)">
<rect x="37" y="72" width="192" height="192" rx="96" fill="url(#paint2_linear_632_7563)"/>
<rect x="121.5" y="-139.5" width="299" height="299" rx="149.5" fill="url(#paint3_linear_632_7563)" stroke="url(#paint4_linear_632_7563)"/>
<path d="M301 123.161C301 131.434 309.379 139.081 322.981 143.218C336.583 147.351 353.34 147.351 366.942 143.218C380.544 139.081 388.923 131.434 388.923 123.161C388.923 110.37 369.24 100 344.962 100C320.683 100 301 110.37 301 123.161ZM344.962 153.287C327.005 153.287 311.563 147.614 304.739 139.486C302.334 142.35 301 145.517 301 148.846C301 161.636 320.683 172.007 344.962 172.007C369.24 172.007 388.923 161.636 388.923 148.846C388.923 145.517 387.589 142.346 385.184 139.49C378.36 147.617 362.918 153.287 344.962 153.287ZM344.962 179.612C326.771 179.612 311.16 173.792 304.475 165.491C302.239 168.272 301 171.327 301 174.532C301 187.322 320.683 197.692 344.962 197.692C369.24 197.692 388.923 187.322 388.923 174.532C388.923 171.327 387.688 168.268 385.448 165.491C378.763 173.792 363.152 179.612 344.962 179.612Z" fill="white" fill-opacity="0.2"/>
</g>
<defs>
<linearGradient id="paint0_linear_632_7563" x1="384.5" y1="180" x2="-19.1954" y2="71.2678" gradientUnits="userSpaceOnUse">
<stop stop-color="#C394FF"/>
<stop offset="1" stop-color="#7459F4"/>
</linearGradient>
<linearGradient id="paint1_linear_632_7563" x1="358.796" y1="180" x2="-19.9723" y2="66.8672" gradientUnits="userSpaceOnUse">
<stop stop-color="#C394FF"/>
<stop offset="1" stop-color="#7459F4"/>
</linearGradient>
<linearGradient id="paint2_linear_632_7563" x1="133" y1="72" x2="214.112" y2="121.797" gradientUnits="userSpaceOnUse">
<stop stop-color="white" stop-opacity="0.1"/>
<stop offset="1" stop-color="white" stop-opacity="0"/>
</linearGradient>
<linearGradient id="paint3_linear_632_7563" x1="146.806" y1="-81.9355" x2="271" y2="160" gradientUnits="userSpaceOnUse">
<stop stop-color="white" stop-opacity="0.1"/>
<stop offset="1" stop-color="white" stop-opacity="0"/>
</linearGradient>
<linearGradient id="paint4_linear_632_7563" x1="217.5" y1="-79.5" x2="271" y2="160" gradientUnits="userSpaceOnUse">
<stop stop-color="white" stop-opacity="0.22"/>
<stop offset="1" stop-color="white" stop-opacity="0"/>
</linearGradient>
</defs>
</svg>
