<svg width="335" height="109" viewBox="0 0 335 109" fill="none" xmlns="http://www.w3.org/2000/svg">
<mask id="mask0_632_7455" style="mask-type:alpha" maskUnits="userSpaceOnUse" x="0" y="0" width="335" height="109">
<rect width="335" height="109" fill="#FFFDE7"/>
</mask>
<g mask="url(#mask0_632_7455)">
<g opacity="0.2">
<circle cx="307.082" cy="92.0821" r="49.918" fill="url(#paint0_linear_632_7455)"/>
<circle cx="307.082" cy="87.918" r="48.618" fill="url(#paint1_linear_632_7455)" stroke="url(#paint2_linear_632_7455)" stroke-width="2.6"/>
<circle cx="307.083" cy="87.9222" r="31.9787" fill="url(#paint3_linear_632_7455)" stroke="url(#paint4_linear_632_7455)" stroke-width="2.6"/>
<path d="M304.034 70.4044C305.345 67.984 308.819 67.984 310.13 70.4044L313.079 75.8477C313.828 77.2301 315.162 78.1994 316.708 78.4845L322.797 79.6071C325.504 80.1063 326.577 83.4098 324.68 85.4049L320.415 89.8917C319.332 91.0311 318.822 92.5995 319.029 94.158L319.842 100.295C320.204 103.024 317.394 105.066 314.91 103.878L309.325 101.208C307.907 100.53 306.258 100.53 304.839 101.208L299.254 103.878C296.77 105.066 293.96 103.024 294.322 100.295L295.136 94.158C295.342 92.5995 294.833 91.0311 293.749 89.8917L289.484 85.4049C287.587 83.4098 288.66 80.1063 291.368 79.6071L297.456 78.4845C299.002 78.1994 300.336 77.2301 301.085 75.8477L304.034 70.4044Z" fill="url(#paint5_linear_632_7455)" stroke="url(#paint6_linear_632_7455)" stroke-width="1.73333"/>
</g>
</g>
<defs>
<linearGradient id="paint0_linear_632_7455" x1="278.283" y1="49.8438" x2="333.961" y2="128.561" gradientUnits="userSpaceOnUse">
<stop stop-color="#B07103"/>
<stop offset="1" stop-color="#B17105"/>
</linearGradient>
<linearGradient id="paint1_linear_632_7455" x1="278.283" y1="45.6797" x2="333.961" y2="124.397" gradientUnits="userSpaceOnUse">
<stop stop-color="#FFED4A"/>
<stop offset="1" stop-color="#F0AD00"/>
</linearGradient>
<linearGradient id="paint2_linear_632_7455" x1="280.043" y1="44.2398" x2="319.562" y2="135.756" gradientUnits="userSpaceOnUse">
<stop stop-color="white"/>
<stop offset="1" stop-color="#FFCB22"/>
</linearGradient>
<linearGradient id="paint3_linear_632_7455" x1="289.334" y1="59.8202" x2="329.269" y2="114.545" gradientUnits="userSpaceOnUse">
<stop stop-color="#FCC501"/>
<stop offset="1" stop-color="#F89D01"/>
</linearGradient>
<linearGradient id="paint4_linear_632_7455" x1="288.364" y1="58.8034" x2="317.483" y2="119.121" gradientUnits="userSpaceOnUse">
<stop stop-color="#A26203"/>
<stop offset="1" stop-color="#FEF78A"/>
</linearGradient>
<linearGradient id="paint5_linear_632_7455" x1="292.683" y1="66.7988" x2="320.522" y2="106.157" gradientUnits="userSpaceOnUse">
<stop stop-color="#FFF7BB"/>
<stop offset="1" stop-color="#F0AF00"/>
</linearGradient>
<linearGradient id="paint6_linear_632_7455" x1="293.563" y1="66.0789" x2="313.322" y2="111.837" gradientUnits="userSpaceOnUse">
<stop stop-color="white"/>
<stop offset="1" stop-color="#FFCB22"/>
</linearGradient>
</defs>
</svg>
