<svg width="30" height="30" viewBox="0 0 30 30" fill="none" xmlns="http://www.w3.org/2000/svg">
<circle cx="15" cy="16.2004" r="13.8" fill="url(#paint0_linear_492_944)"/>
<circle cx="15" cy="15.05" r="13.425" fill="url(#paint1_linear_492_944)" stroke="url(#paint2_linear_492_944)" stroke-width="0.75"/>
<circle cx="15" cy="15.0496" r="8.825" fill="url(#paint3_linear_492_944)" stroke="url(#paint4_linear_492_944)" stroke-width="0.75"/>
<path d="M14.1207 10.2971C14.499 9.59895 15.501 9.59895 15.8792 10.2971L16.6369 11.6956C16.8529 12.0944 17.2378 12.374 17.6838 12.4562L19.248 12.7447C20.0289 12.8887 20.3385 13.8416 19.7914 14.4171L18.6954 15.5698C18.383 15.8985 18.236 16.3509 18.2956 16.8005L18.5046 18.3773C18.609 19.1645 17.7984 19.7534 17.082 19.4109L15.647 18.7248C15.2378 18.5292 14.7621 18.5292 14.353 18.7248L12.918 19.4109C12.2016 19.7534 11.391 19.1645 11.4953 18.3773L11.7044 16.8005C11.764 16.3509 11.617 15.8985 11.3045 15.5698L10.2086 14.4171C9.66146 13.8416 9.97109 12.8887 10.752 12.7447L12.3162 12.4562C12.7622 12.374 13.147 12.0944 13.363 11.6956L14.1207 10.2971Z" fill="url(#paint5_linear_492_944)" stroke="url(#paint6_linear_492_944)" stroke-width="0.5"/>
<defs>
<linearGradient id="paint0_linear_492_944" x1="7.03841" y1="4.52347" x2="22.4307" y2="26.285" gradientUnits="userSpaceOnUse">
<stop stop-color="#B07103"/>
<stop offset="1" stop-color="#B17105"/>
</linearGradient>
<linearGradient id="paint1_linear_492_944" x1="7.03841" y1="3.37308" x2="22.4307" y2="25.1346" gradientUnits="userSpaceOnUse">
<stop stop-color="#FFED4A"/>
<stop offset="1" stop-color="#F0AD00"/>
</linearGradient>
<linearGradient id="paint2_linear_492_944" x1="7.52495" y1="2.975" x2="18.45" y2="28.275" gradientUnits="userSpaceOnUse">
<stop stop-color="white"/>
<stop offset="1" stop-color="#FFCB22"/>
</linearGradient>
<linearGradient id="paint3_linear_492_944" x1="10.0934" y1="7.28072" x2="21.1334" y2="22.4096" gradientUnits="userSpaceOnUse">
<stop stop-color="#FCC501"/>
<stop offset="1" stop-color="#F89D01"/>
</linearGradient>
<linearGradient id="paint4_linear_492_944" x1="9.82505" y1="6.99961" x2="17.875" y2="23.6746" gradientUnits="userSpaceOnUse">
<stop stop-color="#A26203"/>
<stop offset="1" stop-color="#FEF78A"/>
</linearGradient>
<linearGradient id="paint5_linear_492_944" x1="11.0192" y1="9.21095" x2="18.7154" y2="20.0917" gradientUnits="userSpaceOnUse">
<stop stop-color="#FFF7BB"/>
<stop offset="1" stop-color="#F0AF00"/>
</linearGradient>
<linearGradient id="paint6_linear_492_944" x1="11.2625" y1="9.01191" x2="16.725" y2="21.6619" gradientUnits="userSpaceOnUse">
<stop stop-color="white"/>
<stop offset="1" stop-color="#FFCB22"/>
</linearGradient>
</defs>
</svg>
