<svg width="24" height="24" viewBox="0 0 24 24" fill="none" xmlns="http://www.w3.org/2000/svg">
<path d="M12.0031 23.3078C11.0129 23.3078 10.274 22.4572 9.56309 21.6346C9.22539 21.2436 8.76074 20.7078 8.50684 20.6215C6.57715 19.9639 4.92422 18.7908 3.72832 17.2318C2.49434 15.6246 1.8418 13.7305 1.8418 11.7525C1.8418 10.4703 2.11348 9.22363 2.65176 8.05312C3.16973 6.92578 3.90605 5.91523 4.84805 5.04941C5.78242 4.18613 6.87168 3.51074 8.08281 3.03848C9.33203 2.55098 10.66 2.30469 12.0285 2.30469C13.3945 2.30469 14.7225 2.55098 15.9742 3.03848C17.1854 3.51074 18.2746 4.18867 19.209 5.04941C20.1484 5.91523 20.8873 6.92578 21.4053 8.05312C21.9436 9.22363 22.2152 10.4703 22.2152 11.7525C22.2152 13.7406 21.5576 15.6424 20.3135 17.2521C19.1023 18.8137 17.4367 19.9842 15.4969 20.6367C15.248 20.7205 14.7809 21.2537 14.4381 21.6422C13.7221 22.4623 12.9807 23.3078 12.0031 23.3078ZM12.026 3.82559C7.25 3.82559 3.36523 7.38027 3.36523 11.7525C3.36523 15.0457 5.63008 18.0291 8.99941 19.1818C9.64434 19.4027 10.1648 20.002 10.7158 20.6393C10.9951 20.9617 11.2846 21.2969 11.5512 21.5254C11.8355 21.7691 11.9701 21.7869 12.0031 21.7869C12.026 21.7869 12.158 21.7742 12.4525 21.5254C12.7217 21.2969 13.0111 20.9643 13.293 20.6418C13.8465 20.0096 14.3721 19.4104 15.0119 19.1945C18.4066 18.052 20.6867 15.0609 20.6867 11.75C20.6867 7.38027 16.802 3.82559 12.026 3.82559Z" fill="#FF54A8" stroke="#FF54A8"/>
<path d="M11.9826 16.758C9.21504 16.758 6.96289 14.5059 6.96289 11.7383C6.96289 11.3168 7.30313 10.9766 7.72461 10.9766C8.14609 10.9766 8.48633 11.3168 8.48633 11.7383C8.48633 13.6654 10.0555 15.2346 11.9826 15.2346C13.9098 15.2346 15.4789 13.6654 15.4789 11.7383C15.4789 11.3168 15.8191 10.9766 16.2406 10.9766C16.6621 10.9766 17.0023 11.3168 17.0023 11.7383C17.0023 14.5059 14.7502 16.758 11.9826 16.758Z" fill="#FF9580" stroke="#FF9580"/>
</svg>
