<svg width="24" height="24" viewBox="0 0 24 24" fill="none" xmlns="http://www.w3.org/2000/svg">
<path d="M10.8694 2.79851C11.3809 2.28722 12.0744 2 12.7976 2C13.5208 2 14.2144 2.28722 14.7258 2.79851L17.2976 5.37033C17.8089 5.88177 18.0961 6.57533 18.0961 7.29851C18.0961 8.02168 17.8089 8.71525 17.2976 9.22669L9.9667 16.5576C9.52104 17.0033 8.93478 17.2808 8.30761 17.3431L5.45306 17.6267C5.05137 17.6666 4.64582 17.6169 4.26568 17.481C3.88554 17.3452 3.5403 17.1267 3.25485 16.8413C2.96941 16.5558 2.7509 16.2106 2.61507 15.8304C2.47925 15.4503 2.4295 15.0447 2.46943 14.6431L2.75306 11.7885C2.81531 11.1613 3.09286 10.5751 3.53852 10.1294L10.8694 2.79851ZM13.4403 4.08396C13.2699 3.91353 13.0387 3.81779 12.7976 3.81779C12.5566 3.81779 12.3254 3.91353 12.1549 4.08396L4.82397 11.4149C4.67529 11.5636 4.58277 11.7592 4.56215 11.9685L4.27943 14.8231C4.26614 14.9569 4.28271 15.092 4.32793 15.2186C4.37315 15.3452 4.44591 15.4603 4.54095 15.5554C4.63599 15.6505 4.75096 15.7234 4.87756 15.7687C5.00416 15.8141 5.13924 15.8308 5.27306 15.8176L8.12761 15.534C8.33688 15.5133 8.53253 15.4208 8.68124 15.2721L16.0122 7.94124C16.1826 7.77076 16.2783 7.53957 16.2783 7.29851C16.2783 7.05745 16.1826 6.82626 16.0122 6.65578L13.4403 4.08396Z" fill="#FF54A8" stroke="#FF54A8"/>
<path d="M21.0909 20.154C21.332 20.154 21.5632 20.2418 21.7337 20.3981C21.9042 20.5543 22 20.7663 22 20.9873C22 21.2083 21.9042 21.4203 21.7337 21.5766C21.5632 21.7328 21.332 21.8206 21.0909 21.8206H2.90909C2.66798 21.8206 2.43675 21.7328 2.26627 21.5766C2.09578 21.4203 2 21.2083 2 20.9873C2 20.7663 2.09578 20.5543 2.26627 20.3981C2.43675 20.2418 2.66798 20.154 2.90909 20.154H21.0909ZM21.0909 16.334C21.332 16.334 21.5632 16.4218 21.7337 16.5781C21.9042 16.7343 22 16.9463 22 17.1673C22 17.3883 21.9042 17.6003 21.7337 17.7566C21.5632 17.9129 21.332 18.0007 21.0909 18.0007H14.7273C14.4862 18.0007 14.2549 17.9129 14.0844 17.7566C13.914 17.6003 13.8182 17.3883 13.8182 17.1673C13.8182 16.9463 13.914 16.7343 14.0844 16.5781C14.2549 16.4218 14.4862 16.334 14.7273 16.334H21.0909Z" fill="#FF9580" stroke="#FF9580"/>
</svg>
