<svg width="24" height="24" viewBox="0 0 24 24" fill="none" xmlns="http://www.w3.org/2000/svg">
<mask id="mask0_730_3014" style="mask-type:alpha" maskUnits="userSpaceOnUse" x="0" y="0" width="24" height="24">
<rect width="24" height="24" fill="#C4C4C4"/>
</mask>
<g mask="url(#mask0_730_3014)">
<path d="M17.6231 10.3891L8.08637 20H4V15.8814L13.5368 6.27048L17.6231 10.3891ZM18.4244 9.58157L14.3386 5.463L15.4584 4.33435C15.6709 4.12026 15.959 4 16.2594 4C16.5598 4 16.8479 4.12026 17.0604 4.33435L17.061 4.33378L19.5448 6.83567C19.65 6.9418 19.7336 7.06782 19.7906 7.20652C19.8475 7.34521 19.8769 7.49388 19.8769 7.64401C19.8769 7.79414 19.8475 7.9428 19.7906 8.0815C19.7336 8.22019 19.65 8.34621 19.5448 8.45235L18.4244 9.58157ZM13.067 17.7061H19.8672C20.1676 17.7061 20.4558 17.8265 20.6682 18.0407C20.8807 18.255 21 18.5455 21 18.8485C21 19.1515 20.8807 19.442 20.6682 19.6563C20.4558 19.8705 20.1676 19.9909 19.8672 19.9909H13.067C12.7665 19.9909 12.4784 19.8705 12.266 19.6563C12.0535 19.442 11.9342 19.1515 11.9342 18.8485C11.9342 18.5455 12.0535 18.255 12.266 18.0407C12.4784 17.8265 12.7665 17.7061 13.067 17.7061Z" fill="white"/>
</g>
</svg>
