<svg width="24" height="24" viewBox="0 0 24 24" fill="none" xmlns="http://www.w3.org/2000/svg">
<path d="M11.0073 21.0223L2.42531 12.016C2.16927 11.7473 2.00731 11.4028 1.96376 11.0342C1.9202 10.6656 1.9974 10.2929 2.18377 9.97192L5.80255 3.73973C5.95345 3.48015 6.16985 3.26475 6.43012 3.11505C6.69038 2.96536 6.98539 2.88662 7.28564 2.88672H17.213C17.5133 2.88667 17.8084 2.96548 18.0687 3.11527C18.3289 3.26505 18.5453 3.48055 18.6961 3.74022L22.3149 9.97241C22.5013 10.2934 22.5785 10.6661 22.5349 11.0347C22.4914 11.4033 22.3294 11.7478 22.0734 12.0165L13.4536 21.059L13.4321 21.0806C13.269 21.236 13.077 21.3577 12.8668 21.4389C12.6567 21.52 12.4327 21.559 12.2075 21.5535C11.9824 21.548 11.7605 21.4983 11.5545 21.407C11.3486 21.3158 11.1627 21.1854 11.0073 21.0223ZM12.4179 20.0164L21.0087 11.0018C21.0453 10.9634 21.0684 10.9142 21.0745 10.8615C21.0807 10.8089 21.0697 10.7556 21.043 10.7098L17.4242 4.47808C17.4027 4.44101 17.3718 4.41023 17.3347 4.38882C17.2975 4.36741 17.2554 4.35612 17.2126 4.35609H7.28515C7.24228 4.35612 7.20017 4.36741 7.16303 4.38882C7.12588 4.41023 7.09501 4.44101 7.07349 4.47808L3.45421 10.7103C3.42768 10.7561 3.41668 10.8092 3.42286 10.8617C3.42905 10.9143 3.45208 10.9634 3.48851 11.0018L12.071 20.0081C12.0932 20.0314 12.1198 20.0501 12.1492 20.0631C12.1786 20.0761 12.2103 20.0832 12.2425 20.084C12.2746 20.0848 12.3066 20.0792 12.3367 20.0676C12.3667 20.056 12.3946 20.0386 12.4179 20.0164Z" fill="#FF54A8" stroke="#FF54A8"/>
<path d="M11.5705 14.808C11.62 14.8646 11.6812 14.9107 11.7503 14.9437C11.8195 14.9766 11.895 14.9955 11.9722 14.9993C12.0493 15.0031 12.1265 14.9916 12.1988 14.9656C12.2711 14.9396 12.337 14.8996 12.3923 14.8482L12.4311 14.808L15.8714 10.8754C15.9627 10.7702 16.0083 10.6357 15.9988 10.4995C15.9892 10.3633 15.9252 10.2358 15.82 10.1432C15.7147 10.0506 15.5762 9.99984 15.4329 10.0015C15.2896 10.0031 15.1525 10.057 15.0496 10.152L15.0108 10.1919L12.0008 13.6328L8.99088 10.1923C8.90213 10.0907 8.77699 10.0241 8.63968 10.0054C8.50237 9.98666 8.36264 10.0171 8.24754 10.0909L8.2016 10.1236C8.09505 10.2082 8.02522 10.3274 8.00562 10.4582C7.98603 10.589 8.01806 10.722 8.09551 10.8316L8.12988 10.8754L11.5701 14.808H11.5705Z" fill="#FF9580" stroke="#FF9580"/>
</svg>
