<svg width="30" height="30" viewBox="0 0 30 30" fill="none" xmlns="http://www.w3.org/2000/svg">
<circle cx="15" cy="15" r="15" fill="#FCBE01" fill-opacity="0.2"/>
<circle cx="15" cy="14.668" r="8" fill="url(#paint0_linear_534_1284)"/>
<circle cx="15" cy="14" r="7.78261" fill="url(#paint1_linear_534_1284)" stroke="url(#paint2_linear_534_1284)" stroke-width="0.434783"/>
<circle cx="15.0002" cy="14.0003" r="5.11594" fill="url(#paint3_linear_534_1284)" stroke="url(#paint4_linear_534_1284)" stroke-width="0.434783"/>
<path d="M14.4905 11.2441C14.7098 10.8393 15.2907 10.8393 15.51 11.2441L15.9492 12.0548C16.0744 12.286 16.2975 12.4481 16.5561 12.4957L17.4628 12.6629C17.9155 12.7464 18.095 13.2988 17.7779 13.6325L17.1425 14.3007C16.9614 14.4913 16.8762 14.7535 16.9107 15.0142L17.0319 15.9282C17.0924 16.3846 16.6225 16.726 16.2072 16.5274L15.3753 16.1297C15.1381 16.0163 14.8624 16.0163 14.6252 16.1297L13.7933 16.5274C13.378 16.726 12.9081 16.3846 12.9686 15.9282L13.0898 15.0142C13.1243 14.7535 13.0391 14.4913 12.8579 14.3007L12.2226 13.6325C11.9055 13.2988 12.0849 12.7464 12.5376 12.6629L13.4444 12.4957C13.703 12.4481 13.9261 12.286 14.0513 12.0548L14.4905 11.2441Z" fill="url(#paint5_linear_534_1284)" stroke="url(#paint6_linear_534_1284)" stroke-width="0.289855"/>
<defs>
<linearGradient id="paint0_linear_534_1284" x1="10.3846" y1="7.89874" x2="19.3077" y2="20.5141" gradientUnits="userSpaceOnUse">
<stop stop-color="#B07103"/>
<stop offset="1" stop-color="#B17105"/>
</linearGradient>
<linearGradient id="paint1_linear_534_1284" x1="10.3846" y1="7.23077" x2="19.3077" y2="19.8462" gradientUnits="userSpaceOnUse">
<stop stop-color="#FFED4A"/>
<stop offset="1" stop-color="#F0AD00"/>
</linearGradient>
<linearGradient id="paint2_linear_534_1284" x1="10.6667" y1="7" x2="17" y2="21.6667" gradientUnits="userSpaceOnUse">
<stop stop-color="white"/>
<stop offset="1" stop-color="#FFCB22"/>
</linearGradient>
<linearGradient id="paint3_linear_534_1284" x1="12.1558" y1="9.49662" x2="18.5558" y2="18.267" gradientUnits="userSpaceOnUse">
<stop stop-color="#FCC501"/>
<stop offset="1" stop-color="#F89D01"/>
</linearGradient>
<linearGradient id="paint4_linear_534_1284" x1="12.0002" y1="9.33366" x2="16.6669" y2="19.0003" gradientUnits="userSpaceOnUse">
<stop stop-color="#A26203"/>
<stop offset="1" stop-color="#FEF78A"/>
</linearGradient>
<linearGradient id="paint5_linear_534_1284" x1="12.6926" y1="10.6144" x2="17.1541" y2="16.9221" gradientUnits="userSpaceOnUse">
<stop stop-color="#FFF7BB"/>
<stop offset="1" stop-color="#F0AF00"/>
</linearGradient>
<linearGradient id="paint6_linear_534_1284" x1="12.8336" y1="10.499" x2="16.0002" y2="17.8324" gradientUnits="userSpaceOnUse">
<stop stop-color="white"/>
<stop offset="1" stop-color="#FFCB22"/>
</linearGradient>
</defs>
</svg>
