<svg width="24" height="24" viewBox="0 0 24 24" fill="none" xmlns="http://www.w3.org/2000/svg">
<path d="M12.0001 2C13.519 2.00009 14.9757 2.61471 16.0497 3.70866C17.1237 4.80262 17.727 6.2863 17.727 7.83333C17.727 9.38037 17.1237 10.8641 16.0497 11.958C14.9757 13.052 13.519 13.6666 12.0001 13.6667C10.0471 13.6667 8.17411 14.4568 6.79315 15.8634C5.41219 17.2699 4.63638 19.1775 4.63638 21.1667C4.63634 21.3877 4.55013 21.5996 4.39669 21.7558C4.24325 21.9121 4.03516 21.9999 3.81819 21.9999C3.60121 21.9999 3.39312 21.9121 3.23969 21.7558C3.08625 21.5996 3.00003 21.3877 3 21.1667C3 17.2783 5.37683 13.955 8.73222 12.6233C7.73071 11.9144 6.97756 10.8983 6.58246 9.72301C6.18735 8.54776 6.17093 7.27474 6.53558 6.08932C6.90022 4.9039 7.6269 3.868 8.60977 3.13247C9.59265 2.39694 10.7804 2.00019 12.0001 2ZM12.0001 3.66667C11.4628 3.66667 10.9309 3.77444 10.4345 3.98384C9.93819 4.19323 9.48721 4.50014 9.10733 4.88705C8.72745 5.27397 8.42612 5.7333 8.22053 6.23882C8.01494 6.74434 7.90912 7.28616 7.90912 7.83333C7.90912 8.38051 8.01494 8.92232 8.22053 9.42785C8.42612 9.93337 8.72745 10.3927 9.10733 10.7796C9.48721 11.1665 9.93819 11.4734 10.4345 11.6828C10.9309 11.8922 11.4628 12 12.0001 12C13.085 12 14.1256 11.561 14.8928 10.7796C15.66 9.99821 16.091 8.9384 16.091 7.83333C16.091 6.72826 15.66 5.66846 14.8928 4.88705C14.1256 4.10565 13.085 3.66667 12.0001 3.66667Z" fill="#FF54A8" stroke="#FF54A8"/>
<path d="M16.9092 13.667C17.1262 13.667 17.3343 13.7548 17.4877 13.9111C17.6412 14.0674 17.7274 14.2793 17.7274 14.5003V17.0003H20.1819C20.3989 17.0004 20.607 17.0882 20.7604 17.2444C20.9138 17.4007 21 17.6127 21 17.8337C21 18.0547 20.9138 18.2666 20.7604 18.4229C20.607 18.5791 20.3989 18.667 20.1819 18.667H17.7274V21.167C17.7274 21.388 17.6412 21.6 17.4877 21.7562C17.3343 21.9125 17.1262 22.0003 16.9092 22.0003C16.6922 22.0003 16.4841 21.9125 16.3306 21.7562C16.1772 21.6 16.091 21.388 16.091 21.167V18.667H13.6364C13.4194 18.667 13.2114 18.5791 13.058 18.4229C12.9045 18.2666 12.8184 18.0547 12.8184 17.8337C12.8184 17.6127 12.9045 17.4007 13.058 17.2444C13.2114 17.0882 13.4194 17.0004 13.6364 17.0003H16.091V14.5003C16.091 14.2793 16.1772 14.0674 16.3306 13.9111C16.4841 13.7548 16.6922 13.667 16.9092 13.667Z" fill="#FF9580" stroke="#FF9580"/>
</svg>
