<svg width="24" height="24" viewBox="0 0 24 24" fill="none" xmlns="http://www.w3.org/2000/svg">
<mask id="mask0_207_1331" style="mask-type:alpha" maskUnits="userSpaceOnUse" x="0" y="0" width="24" height="24">
<rect width="24" height="24" fill="#C4C4C4"/>
</mask>
<g mask="url(#mask0_207_1331)">
<path d="M6.005 10.5C6.0015 10.417 6 10.3335 6 10.25C6 6.798 8.6865 4 12 4C15.3135 4 18 6.798 18 10.25C18 10.3335 17.9985 10.417 17.995 10.5H18C17.9115 13.102 17.9115 14.691 18 15.2665C18.0885 15.8425 18.422 16.42 19 17H5C5.4115 16.42 5.6615 15.8425 5.75 15.2665C5.995 13.676 6.078 12.0865 6 10.5H6.005Z" fill="#1F263D"/>
<rect opacity="0.3" x="8" y="18" width="8" height="2" rx="1" fill="#1F263D"/>
</g>
</svg>
