<svg width="24" height="24" viewBox="0 0 24 24" fill="none" xmlns="http://www.w3.org/2000/svg">
<path d="M16.6014 19.5C17.0156 19.5 17.3514 19.8358 17.3514 20.25C17.3514 20.6642 17.0156 21 16.6014 21H7.39865C6.98444 21 6.64865 20.6642 6.64865 20.25C6.64865 19.8358 6.98443 19.5 7.39865 19.5H16.6014ZM19 3C20.1046 3 21 3.89543 21 5V15.5C21 16.6046 20.1046 17.5 19 17.5H5C3.89543 17.5 3 16.6046 3 15.5V5C3 3.89543 3.89543 3 5 3H19ZM19.5405 6.5C19.5405 5.39543 18.6451 4.5 17.5405 4.5H6.45946C5.35489 4.5 4.45946 5.39543 4.45946 6.5V14C4.45946 15.1046 5.35489 16 6.45946 16H17.5405C18.6451 16 19.5405 15.1046 19.5405 14V6.5Z" fill="#FF54A8" stroke="#FF54A8"/>
<path d="M9.08104 12.3425V10.302C9.08104 9.89898 8.75433 9.57227 8.35131 9.57227C7.94829 9.57227 7.62158 9.89898 7.62158 10.302V12.3425C7.62158 12.7456 7.94829 13.0723 8.35131 13.0723C8.75433 13.0723 9.08104 12.7456 9.08104 12.3425Z" fill="#FF9580"/>
<path d="M12.7297 12.3425V8.302C12.7297 7.89898 12.403 7.57227 12 7.57227C11.5969 7.57227 11.2702 7.89898 11.2702 8.302V12.3425C11.2702 12.7456 11.5969 13.0723 12 13.0723C12.403 13.0723 12.7297 12.7456 12.7297 12.3425Z" fill="#FF9580"/>
<path d="M16.3783 12.3425V9.802C16.3783 9.39898 16.0516 9.07227 15.6486 9.07227C15.2456 9.07227 14.9189 9.39898 14.9189 9.802V12.3425C14.9189 12.7456 15.2456 13.0723 15.6486 13.0723C16.0516 13.0723 16.3783 12.7456 16.3783 12.3425Z" fill="#FF9580"/>
<path d="M9.08104 12.3425V10.302C9.08104 9.89898 8.75433 9.57227 8.35131 9.57227C7.94829 9.57227 7.62158 9.89898 7.62158 10.302V12.3425C7.62158 12.7456 7.94829 13.0723 8.35131 13.0723C8.75433 13.0723 9.08104 12.7456 9.08104 12.3425Z" stroke="#FF9580" stroke-width="0.6"/>
<path d="M12.7297 12.3425V8.302C12.7297 7.89898 12.403 7.57227 12 7.57227C11.5969 7.57227 11.2702 7.89898 11.2702 8.302V12.3425C11.2702 12.7456 11.5969 13.0723 12 13.0723C12.403 13.0723 12.7297 12.7456 12.7297 12.3425Z" stroke="#FF9580" stroke-width="0.6"/>
<path d="M16.3783 12.3425V9.802C16.3783 9.39898 16.0516 9.07227 15.6486 9.07227C15.2456 9.07227 14.9189 9.39898 14.9189 9.802V12.3425C14.9189 12.7456 15.2456 13.0723 15.6486 13.0723C16.0516 13.0723 16.3783 12.7456 16.3783 12.3425Z" stroke="#FF9580" stroke-width="0.6"/>
</svg>
