<svg width="8" height="8" viewBox="0 0 8 8" fill="none" xmlns="http://www.w3.org/2000/svg">
<path fill-rule="evenodd" clip-rule="evenodd" d="M7.53553 1.8787C7.92606 1.48818 7.92606 0.855014 7.53553 0.464489C7.14501 0.0739647 6.51184 0.0739651 6.12132 0.464489L4 2.58581L1.87868 0.464489C1.48816 0.0739647 0.85499 0.0739647 0.464466 0.464489C0.0739419 0.855013 0.073942 1.48818 0.464466 1.8787L2.58579 4.00002L0.464466 6.12134C0.0739422 6.51187 0.0739419 7.14503 0.464466 7.53556C0.85499 7.92608 1.48816 7.92608 1.87868 7.53556L4 5.41424L6.12132 7.53556C6.51184 7.92608 7.14501 7.92608 7.53553 7.53556C7.92606 7.14503 7.92606 6.51187 7.53553 6.12134L5.41421 4.00002L7.53553 1.8787Z" fill="white"/>
</svg>
