<svg width="14" height="14" viewBox="0 0 14 14" fill="none" xmlns="http://www.w3.org/2000/svg">
<g clip-path="url(#clip0_728_2747)">
<path d="M13.2931 6.29265L12.0002 4.99968V2.99968C11.9994 2.7347 11.8938 2.48081 11.7064 2.29344C11.519 2.10607 11.2651 2.00046 11.0002 1.99968H9.00017L7.7072 0.706711C7.51928 0.519898 7.26507 0.415039 7.00009 0.415039C6.73511 0.415039 6.4809 0.519898 6.29298 0.706711L5.00017 1.99968H3.00017C2.73519 2.00046 2.48129 2.10607 2.29393 2.29344C2.10656 2.48081 2.00095 2.7347 2.00017 2.99968V4.99968L0.7072 6.29265C0.520386 6.48057 0.415527 6.73478 0.415527 6.99976C0.415527 7.26474 0.520386 7.51895 0.7072 7.70687L2.00017 8.99968V10.9997C2.00095 11.2647 2.10656 11.5186 2.29393 11.7059C2.48129 11.8933 2.73519 11.9989 3.00017 11.9997H5.00017L6.29314 13.2927C6.48106 13.4795 6.73527 13.5843 7.00025 13.5843C7.26523 13.5843 7.51944 13.4795 7.70736 13.2927L9.00017 11.9997H11.0002C11.2651 11.9989 11.519 11.8933 11.7064 11.7059C11.8938 11.5186 11.9994 11.2647 12.0002 10.9997V8.99968L13.2931 7.70671C13.4799 7.5188 13.5847 7.26462 13.5847 6.99968C13.5847 6.73474 13.4799 6.48056 13.2931 6.29265ZM7.00017 10.4997L4.00017 4.99968H5.50017L7.00017 7.99968L8.50017 4.99968H10.0002L7.00017 10.4997Z" fill="#FF6666"/>
</g>
<defs>
<clipPath id="clip0_728_2747">
<rect width="14" height="14" fill="white"/>
</clipPath>
</defs>
</svg>
