<svg width="24" height="24" viewBox="0 0 24 24" fill="none" xmlns="http://www.w3.org/2000/svg">
<path d="M14.3602 13.5433C14.7717 13.5433 15.1051 13.2059 15.1051 12.79C15.1051 12.3747 14.7718 12.0372 14.3602 12.0372H13.3324L14.4744 10.8832C14.7654 10.5891 14.7654 10.1123 14.4744 9.81821C14.1833 9.52414 13.7115 9.52414 13.4205 9.81821L12.0089 11.2446L10.5973 9.81821C10.3063 9.52414 9.83504 9.52414 9.54345 9.81821C9.25244 10.1123 9.25244 10.5891 9.54345 10.8832L10.6855 12.0372H9.64027C9.2287 12.0372 8.89479 12.3746 8.89479 12.79C8.89479 13.2059 9.2287 13.5433 9.64027 13.5433H11.2547V14.364H9.57304C9.16144 14.364 8.82812 14.7014 8.82812 15.1167C8.82812 15.5326 9.16144 15.87 9.57304 15.87H11.2547V17.3088C11.2547 17.7241 11.5887 18.0615 12.0002 18.0615C12.4118 18.0615 12.7451 17.7241 12.7451 17.3088V15.87H14.2929C14.7045 15.87 15.0384 15.5326 15.0384 15.1167C15.0384 14.7014 14.7045 14.364 14.2929 14.364H12.7451V13.5433H14.3602Z" fill="#FF9580" stroke="#FF9580"/>
<path d="M16.4297 6.10401C16.9346 5.43915 17.2285 4.70689 17.2285 4.01625C17.2285 2.88974 16.5491 1 12.0003 1C10.0473 1 6.77144 1.39186 6.77144 4.01625C6.77144 4.70689 7.06536 5.43915 7.57027 6.10401C4.23646 8.32004 2 12.5677 2 15.1065C2 19.9012 5.9251 23 12.0003 23C18.0749 23 22 19.9012 22 15.1065C22 12.5676 19.7635 8.31946 16.4297 6.10401ZM12.0003 21.4933C7.30009 21.4933 3.49035 19.453 3.49035 15.1064C3.49035 12.6244 6.4323 7.64167 10.2942 6.43497C9.11337 5.84859 8.26184 4.77483 8.26184 4.01625C8.26184 2.92492 9.9354 2.50665 12.0003 2.50665C14.0645 2.50665 15.7381 2.9249 15.7381 4.01625C15.7381 4.77483 14.8872 5.84861 13.7057 6.43497C17.5677 7.6417 20.5096 12.6244 20.5096 15.1064C20.5096 19.453 16.6998 21.4933 12.0003 21.4933Z" fill="#FF54A8" stroke="#FF54A8"/>
</svg>
