<svg width="20" height="20" viewBox="0 0 20 20" fill="none" xmlns="http://www.w3.org/2000/svg">
<circle cx="10" cy="10" r="10" fill="#FF54A8"/>
<g clip-path="url(#clip0_730_2999)">
<path d="M16 4H4V16H16V4Z" fill="white" fill-opacity="0.01"/>
<path d="M11.75 6.75C11.75 5.7835 10.9665 5 10 5C9.0335 5 8.25 5.7835 8.25 6.75V10C8.25 10.9665 9.0335 11.75 10 11.75C10.9665 11.75 11.75 10.9665 11.75 10V6.75Z" fill="white" stroke="white" stroke-linejoin="round"/>
<path d="M6.25 9.75C6.25 11.8211 7.92893 13.5 10 13.5C12.0711 13.5 13.75 11.8211 13.75 9.75" stroke="white" stroke-linecap="round" stroke-linejoin="round"/>
<path d="M10 13.5V15" stroke="white" stroke-linecap="round" stroke-linejoin="round"/>
</g>
<defs>
<clipPath id="clip0_730_2999">
<rect width="12" height="12" fill="white" transform="translate(4 4)"/>
</clipPath>
</defs>
</svg>
