<svg width="24" height="24" viewBox="0 0 24 24" fill="none" xmlns="http://www.w3.org/2000/svg">
<path d="M12 22C6.48669 22 2 17.5133 2 12C2 6.48669 6.48669 2 12 2C17.5133 2 22 6.48669 22 12C22 17.5133 17.5133 22 12 22ZM12 3.61977C7.37643 3.61977 3.61977 7.37643 3.61977 12C3.61977 16.6236 7.37643 20.3802 12 20.3802C16.6236 20.3802 20.3802 16.6236 20.3802 12C20.3802 7.37643 16.6236 3.61977 12 3.61977Z" fill="#FF54A8" stroke="#FF54A8"/>
<path d="M12 16C11.548 16 11.0874 15.8294 10.7463 15.4796L8.52026 13.253C8.18763 12.9203 8 12.4681 8 11.9989C8 11.5212 8.18763 11.0776 8.52026 10.7449L10.7463 8.51826C11.4371 7.82725 12.5629 7.82725 13.2537 8.51826L15.4797 10.7449C15.8124 11.0776 16 11.5297 16 11.9989C16 12.4767 15.8124 12.9203 15.4797 13.253L13.2537 15.4796C12.9126 15.8294 12.4606 16 12 16ZM9.82516 11.9989L12 14.1744L14.1748 11.9989L12 9.82351L9.82516 11.9989Z" fill="#FF9580" stroke="#FF9580"/>
</svg>
